 <!DOCTYPE svg PUBLIC "-//W3C//DTD SVG 1.1//EN" "http://www.w3.org/Graphics/SVG/1.1/DTD/svg11.dtd">
<svg id="e638b395-bcfd-4e22-b237-2722a8291db4" data-name="Layer 1" xmlns="http://www.w3.org/2000/svg" width="865.76" height="682.89" viewBox="0 0 865.76 682.89">
<defs>
<style xmlns="http://www.w3.org/1999/xhtml">*, ::after, ::before { box-sizing: border-box; }
img, svg { vertical-align: middle; }
</style>
<style xmlns="http://www.w3.org/1999/xhtml">*, body, html { -webkit-font-smoothing: antialiased; }
img, svg { max-width: 100%; }
</style>
</defs>
<path d="M539.74,10.82H717.07a9.56,9.56,0,0,1,9.56,9.56V319.74a5.58,5.58,0,0,1-5.58,5.58H535.75a5.58,5.58,0,0,1-5.58-5.58V20.39A9.56,9.56,0,0,1,539.74,10.82Z" fill="#ccc"/>
<path d="M539.74,10.82H717.07a9.56,9.56,0,0,1,9.56,9.56v24a0,0,0,0,1,0,0H530.17a0,0,0,0,1,0,0v-24A9.56,9.56,0,0,1,539.74,10.82Z" opacity="0.2"/>
<path d="M535.07,291.72H722.6a4.46,4.46,0,0,1,4.46,4.46v29.14a0,0,0,0,1,0,0H530.61a0,0,0,0,1,0,0V296.18A4.46,4.46,0,0,1,535.07,291.72Z" transform="translate(1257.66 617.04) rotate(180)" opacity="0.2"/>
<rect x="556.89" y="99.15" width="143.89" height="19.74" rx="9.87" fill="#fff"/>
<rect x="555.59" y="129.88" width="143.89" height="19.74" rx="9.87" fill="#fff"/>
<rect x="556.89" y="160.61" width="143.89" height="19.74" rx="9.87" fill="#fff"/>
<rect x="555.59" y="198.62" width="59.88" height="71.13" rx="4.57" fill="#fff"/>
<rect x="597.38" y="62.56" width="60.32" height="19.74" rx="9.87" fill="#fff"/>
<rect x="640.46" y="218.65" width="60.32" height="19.74" rx="4.57" fill="#fff"/>
<rect x="640.46" y="249.98" width="60.32" height="19.74" rx="4.57" fill="#fff"/>
<path d="M120,10.82H493a27.1,27.1,0,0,1,27.1,27.1V263.61A26.37,26.37,0,0,1,493.77,290H119.27a26.37,26.37,0,0,1-26.37-26.37V37.93A27.1,27.1,0,0,1,120,10.82Z" fill="#ccc"/>
<path d="M118.85,10.82H494.19a26,26,0,0,1,26,26V48.39a0,0,0,0,1,0,0H92.89a0,0,0,0,1,0,0V36.78a26,26,0,0,1,26-26Z" opacity="0.2"/>
<path d="M474.32,448.47s-30,5.29-41.85,4.7c0,0-27.88,5-30,31.74,0,0-11.28,57.54-13,85.42,0,0-3.27,5-3,8.9,0,0,38.26,5.93,47.75,14.24,0,0,6.53-72.38,6.83-96.4,0,0,21.65,9.69,43.9,10.48a8.94,8.94,0,0,1,7.41-4.55l45.21.18S501.93,482.63,474.32,448.47Z" fill="#2f2e41" data-secondary="true"/>
<path d="M474.32,448.47s-30,5.29-41.85,4.7c0,0-27.88,5-30,31.74,0,0-11.28,57.54-13,85.42,0,0-3.27,5-3,8.9,0,0,38.26,5.93,47.75,14.24,0,0,6.53-72.38,6.83-96.4,0,0,21.65,9.69,43.9,10.48a8.94,8.94,0,0,1,7.41-4.55l44.34.18S501.93,482.63,474.32,448.47Z" opacity="0.2"/>
<path d="M509.3,387.32l25.36-24.38a51.63,51.63,0,0,0,7.77-9.54c4.28-6.72,13.94-19,29.75-23.37l1.1-3.94s18.5,9.16,24.87-20.27c0,0,.93,6.45,4.69,10,0,0,10.87-5,17.09,6.53,0,0,43.61,4.75,46.57,29.66,0,0,5,78-11.86,85.13,0,0-9.49,3-14.83,2.67,0,0-8.6,31.15-34.71,55.17,0,0-51.61-16-71.18-43.3l.59-16.32S547.26,415.5,547,399.19c0,0-20.35,15.88-25.69,19.14,0,0-41.28-36.23-57.07-34,0,0-10.68-40.63-9.79-51.61,1.78-.59,13.05-7.11,22.25-8C476.67,324.74,503.66,379.91,509.3,387.32Z" fill="#0071f2" data-primary="true"/>
<g opacity="0.2">
<path d="M547.41,399.32l-.88-.27c3.49-11.37,3.24-34.33,3.24-34.56-.6-8.36,6.86-18,7.18-18.39l.73.57c-.08.1-7.56,9.75-7,17.78C550.7,364.71,551,387.82,547.41,399.32Z"/>
</g>
<g opacity="0.2">
<path d="M574.58,377.54l-.31-.23c-9.86-7.47-9.4-37.37-9.37-38.64l.92,0c0,.3-.47,30.06,8.72,37.65,2.63-2.32,21-18.37,28-22a33.58,33.58,0,0,0,3.5-2c5.75-3.92,18.83-14.17,16.09-24.59l.89-.23c2.89,11-10.55,21.55-16.46,25.58a32.66,32.66,0,0,1-3.6,2.1c-7.37,3.78-27.92,21.93-28.13,22.12Z"/>
</g>
<path d="M443,311.24a44.45,44.45,0,0,1,12.75,20.89s11.68-5.66,18.45-7c0,0-4.6-4-4.31-6a98.64,98.64,0,0,0,.51-17,13.55,13.55,0,0,0-6-10.11c-4.85-3.26-12.78-9-16.43-13.61a2,2,0,0,0-3.1,0h0a2,2,0,0,1-3,0l-8.36-9.63a2.88,2.88,0,0,0-4.48.16h0a2.88,2.88,0,0,0,.08,3.56l9.35,11.37-1.9,2.13a25.8,25.8,0,0,0-6.4,19.51l.35,3.77a.77.77,0,0,0,.89.69l2.15-.36a.77.77,0,0,0,.63-.62h0a.77.77,0,0,1,1.52,0l0,.25a.77.77,0,0,0,.67.64l1.27.14a.78.78,0,0,0,.86-.69l.79-8,.87,4.87A9,9,0,0,0,443,311.24Z" fill="#f9b499"/>
<path d="M600.57,493.46s-28.24,25.93-68.45,7.44c0,0-49.46-33.28-67-66.56l-57.24,47.14s-27.35-17.56-34.75-26.81c0,0,75-68.53,91.1-70.32,0,0,12.44-7.89,67,43l2.72,24.34S548.37,474.47,600.57,493.46Z" fill="#2f2e41" data-secondary="true"/>
<path d="M386.5,579.23s-6.53,8.6,14.83,11.57c0,0,18.39,4.45,32.92,2.67C434.25,593.47,428.92,586.05,386.5,579.23Z" fill="#2f2e41" data-secondary="true"/>
<path d="M393,580.71s-2.66,37.08-44.78,45.39c0,0-2.67,8.3,0,11,0,0,26.39,10.68,53.68-7.71l5.94-.59v8.3L431,635.88s2.08-20.17-1.78-29.06c0,0-4.74-11.58-2.67-17.8C426.54,589,410.23,582.49,393,580.71Z" fill="#0071f2" data-primary="true"/>
<path d="M618.84,404.49V380.25a7.46,7.46,0,0,1,7.46-7.46h0s.62,12.06,2.39,19.75c0,0,2.75,8.64-4.26,11.2Z" fill="#ccc"/>
<polygon points="633.88 524.52 629.48 524.52 629.48 458.33 633.88 457.51 633.88 524.52" fill="#ccc"/>
<polygon points="633.88 524.52 629.48 524.52 629.48 458.33 633.88 457.51 633.88 524.52" opacity="0.2"/>
<path d="M499.59,503.18H619.44a12.23,12.23,0,0,1,12.23,12.23v9.11a0,0,0,0,1,0,0H481.3a0,0,0,0,1,0,0v-3a18.3,18.3,0,0,1,18.3-18.3Z" fill="#ccc"/>
<rect x="491.5" y="526.73" width="8.9" height="145.34" fill="#ccc"/>
<rect x="613.41" y="526.73" width="8.9" height="145.34" fill="#ccc"/>
<rect x="459.82" y="430.03" width="5.39" height="242.04" fill="#ccc"/>
<rect x="459.82" y="430.03" width="5.39" height="242.04" opacity="0.2"/>
<rect x="311.75" y="431.81" width="5.39" height="240.26" fill="#ccc"/>
<rect x="311.75" y="431.81" width="5.39" height="240.26" opacity="0.2"/>
<rect x="331.28" y="431.81" width="5.39" height="193.99" fill="#ccc"/>
<rect x="331.28" y="431.81" width="5.39" height="193.99" opacity="0.2"/>
<polygon points="418.24 379.02 466.88 426.97 307.01 426.97 327.77 379.02 418.24 379.02" fill="#ccc"/>
<polygon points="418.24 379.02 466.88 426.97 307.01 426.97 327.77 379.02 418.24 379.02" opacity="0.2"/>
<path d="M254.8,280.08h0L280.61,382H414.68l-1.19,3.86H277.34l-26.1-101.16A3.68,3.68,0,0,1,254.8,280.08Z" fill="#2f2e41" data-secondary="true"/>
<path d="M334,385.84s-3.53,17.5,3.88,19h25.22s-2.38-.59-2.08-5.63l.4-13.35Z" fill="#2f2e41" data-secondary="true"/>
<path d="M339,409.67l-1.19-4.85S331,403,334,385.84a24,24,0,0,0-2.62,15.81,9.91,9.91,0,0,0,7.53,8Z" fill="#bcbec0"/>
<path d="M382,409.67H339l-1.19-4.85h39.26A4.85,4.85,0,0,1,382,409.67Z" fill="#bcbec0"/>
<path d="M602.73,312.28s0,2.47.21,5.15a14.61,14.61,0,0,0,4.06,9l3.24,3.35a114.56,114.56,0,0,1-28,24s-7.11,2.38-7.71-3.85l-2.37-11.57s5.07,3.49,7.06-10.95c0,0,13.9.85,18.91-21.61C598.15,305.82,600.06,310.5,602.73,312.28Z" fill="#f9b499"/>
<path d="M578.72,330.51l.66-4.45,18.77-20.24S601,326.85,578.72,330.51Z" fill="#f4a68e"/>
<ellipse cx="579.38" cy="297.61" rx="19.51" ry="29.99" fill="#f9b499"/>
<path d="M559.88,297.61a17.59,17.59,0,0,1-3.42-12.92s-10.09-7.41-7.12-24.32c0,0,4.45,4.75,8,4.45a37,37,0,0,0-6.82-8.6s17.79-10.09,36.48,3.56c0,0-5.63-8-14.53-11.87,0,0,14.44-1.45,22.54,19.71,0,0,1.31,1.65,5.55,1.35,0,0,8.39-.89,9.58,5.34,0,0,1.48,21.36-7.42,38a11.74,11.74,0,0,1-4.58-6.46,45,45,0,0,0,.07-16s-4.24-6.73-11.8-9.1c0,0-6.68-2.37-8.31-6.68,0,0-11.07,6.93-15.32,7.84C562.79,281.85,559.17,289.61,559.88,297.61Z" fill="#2f2e41" data-secondary="true"/>
<ellipse cx="600.57" cy="297.24" rx="9.25" ry="4.89" transform="translate(244.93 865.19) rotate(-84.28)" fill="#f9b499"/>
<path d="M551.41,427.89s-34.4-2.9-35.59,6.89c0,0-5.34,16.31,5.64,22.25,0,0,11.27,10.08,16.61,9.19,0,0,2.56-1-6.58-9.48a2.93,2.93,0,0,1,2.29-5.07l.14,0s13.14.12,17.5-4.88l5.43-1.24S552.78,435.86,551.41,427.89Z" fill="#f9b499"/>
<g opacity="0.2">
<path d="M562.16,450.75a10.14,10.14,0,0,1-1.45-.09l-.09,0-.08-.05c-5.56-3.63-9.42-24-9.58-24.92l-.06-.34.31-.16a44.14,44.14,0,0,1,14.33-3.9c1.51-.68,19.83-8.89,30-9.78,1.1-.44,16.09-6.29,24.65-7.72h.14s3.87.51,6.27-1.9c1.76-1.76,2.36-4.64,1.81-8.55-.27-1.29-6.54-32.34,1.15-41.7a6.93,6.93,0,0,0,1.27-2.13c.8-2.38.92-7.21-7.27-12.8l.52-.77c8.69,5.94,8.51,11.23,7.63,13.86a7.7,7.7,0,0,1-1.44,2.43c-7.4,9-1,40.63-1,41,.6,4.25-.09,7.39-2.07,9.37-2.57,2.57-6.38,2.24-7,2.16-8.76,1.48-24.3,7.62-24.46,7.68l-.13,0c-10.18.87-29.61,9.66-29.8,9.75l-.08,0h-.08a43.24,43.24,0,0,0-13.75,3.66c.53,2.73,4.2,20.59,9,23.91a16.61,16.61,0,0,0,11-3.2l.13-.09h.16c.41,0,42,2.26,67.44-7.09l.32.87c-24.8,9.12-64.79,7.29-67.66,7.15A18,18,0,0,1,562.16,450.75Z"/>
</g>
<path d="M618.84,444.87v12.64a7.51,7.51,0,0,0,7.52,7.52h0a7.52,7.52,0,0,0,7.52-7.52V441.73A110.89,110.89,0,0,1,618.84,444.87Z" fill="#ccc"/>
<rect x="478.74" y="524.52" width="158.49" height="9.11" fill="#ccc"/>
<rect x="478.74" y="524.52" width="158.49" height="9.11" opacity="0.2"/>
<path d="M375.74,457.53a78.29,78.29,0,0,1-36.55,16.06s-15.39-.34-13.34,10.25a34.12,34.12,0,0,0,1.21,7.58A5.18,5.18,0,0,0,332,495h32.48s9.57,1.16,14.7-6.7l3.08-.68,1.71,5.12,17.51-2.44q.61-2.4,1.13-5.12c.43-2.31.73-4.49.93-6.52C400.31,476.45,397,474.13,375.74,457.53Z" fill="#0071f2" data-primary="true"/>
<rect x="307.01" y="426.97" width="159.88" height="6.23" fill="#ccc"/>
<polygon points="280.61 381.98 254.8 280.08 386.45 280.08 414.68 381.98 280.61 381.98" fill="#2f2e41" data-secondary="true"/>
<polygon points="280.61 381.98 254.8 280.08 386.45 280.08 414.68 381.98 280.61 381.98" opacity="0.2"/>
<polygon points="258.06 283.21 282.39 376.94 413.49 376.94 386.94 283.21 258.06 283.21" fill="#bcbec0"/>
<rect x="107.36" y="23.28" width="34.29" height="15.31" rx="7.65" fill="#fff"/>
<rect x="144.1" y="69.98" width="57.56" height="15.31" rx="7.65" fill="#fff"/>
<rect x="144.1" y="105.2" width="95.53" height="15.31" rx="7.65" fill="#fff"/>
<rect x="144.1" y="140.42" width="45.31" height="15.31" rx="7.65" fill="#fff"/>
<rect x="424.25" y="140.42" width="76.85" height="15.31" rx="7.65" fill="#fff"/>
<rect x="249.14" y="140.42" width="155.21" height="15.31" rx="7.65" fill="#fff"/>
<rect x="144.1" y="175.64" width="155.21" height="15.31" rx="7.65" fill="#fff"/>
<rect x="322.87" y="175.64" width="81.48" height="15.31" rx="7.65" fill="#fff"/>
<rect x="144.06" y="210.86" width="77.64" height="15.31" rx="7.65" fill="#fff"/>
<rect x="144.06" y="246.08" width="45.35" height="15.31" rx="7.65" fill="#fff"/>
<rect x="211.99" y="246.08" width="97.44" height="15.31" rx="7.65" fill="#fff"/>
<rect x="360.75" y="246.08" width="76.67" height="15.31" rx="7.65" fill="#fff"/>
<rect x="452.42" y="210.86" width="49.08" height="15.31" rx="7.65" fill="#fff"/>
<rect x="257.35" y="210.86" width="132.61" height="15.31" rx="7.65" fill="#fff"/>
<rect x="421.93" y="175.64" width="40.74" height="15.31" rx="7.65" fill="#fff"/>
<rect x="291.37" y="105.2" width="106.24" height="15.31" rx="7.65" fill="#fff"/>
<rect x="419.05" y="105.2" width="66.75" height="15.31" rx="7.65" fill="#fff"/>
<rect x="224.21" y="69.98" width="121.96" height="15.31" rx="7.65" fill="#fff"/>
<rect x="401.04" y="69.98" width="100.06" height="15.31" rx="7.65" fill="#fff"/>
<rect x="389.96" y="23.28" width="34.29" height="15.31" rx="7.65" fill="#fff"/>
<rect x="432.21" y="23.28" width="34.29" height="15.31" rx="7.65" fill="#fff"/>
<rect x="476.9" y="23.28" width="34.29" height="15.31" rx="7.65" fill="#fff"/>
<circle cx="123.74" cy="77.63" r="8.42" fill="#fff"/>
<circle cx="124.5" cy="148.07" r="8.42" fill="#fff"/>
<circle cx="124.5" cy="112.85" r="8.42" fill="#fff"/>
<circle cx="123.74" cy="183.29" r="8.42" fill="#fff"/>
<circle cx="124.5" cy="219.54" r="8.42" fill="#fff"/>
<circle cx="124.5" cy="252.66" r="8.42" fill="#fff"/>
</svg>