 <!DOCTYPE svg PUBLIC "-//W3C//DTD SVG 1.1//EN" "http://www.w3.org/Graphics/SVG/1.1/DTD/svg11.dtd">
<svg id="b9f62c1d-cda9-45a0-89e2-988caa3d4e2e" data-name="Layer 1" xmlns="http://www.w3.org/2000/svg" width="865.76" height="682.89" viewBox="0 0 865.76 682.89">
<defs>
<style xmlns="http://www.w3.org/1999/xhtml">*, ::after, ::before { box-sizing: border-box; }
img, svg { vertical-align: middle; }
</style>
<style xmlns="http://www.w3.org/1999/xhtml">*, body, html { -webkit-font-smoothing: antialiased; }
img, svg { max-width: 100%; }
</style>
</defs>
<path d="M153.54,255.25s13.32-8.88,6.28-34.92l31.88,8.37-5.19,9.4v10.22s.18,3,1.24,3.8l7.42,32.69-7.79,8.08-35.06-9.09s-.72-6.92.72-10.1S153.54,255.25,153.54,255.25Z" fill="#f9b499"/>
<polygon points="235.11 605.84 195.72 475.79 205.01 475.79 235.11 605.84" fill="#a7a9ac"/>
<polygon points="114.35 470.59 92.43 638.91 125.87 470.59 114.35 470.59" fill="#a7a9ac"/>
<path d="M195.73,426v56.1l-4.62-.26L119.3,477.7c2.23.16,8,.55,8.47.61-.28,0-3.19-.16-11.27-.66-24.23-1.48-22.59-58-22.59-58a107.85,107.85,0,0,0-9.65-41.36c-8.55-23.52-6.69-46.92-6.69-46.92-2-25.55,22-32.84,33.28-34.85a.53.53,0,0,0,.12,0,51.4,51.4,0,0,1,5.53-.71l6.4,12.76Z" fill="#a7a9ac"/>
<path d="M191.11,481.84,119.3,477.7c2.23.16,8,.55,8.47.61-.28,0-3.19-.16-11.27-.66-24.23-1.48-22.59-58-22.59-58a107.85,107.85,0,0,0-9.65-41.36c-8.55-23.52-6.69-46.92-6.69-46.92-2-25.55,22-32.84,33.28-34.85-10,2.21-28.57,11-16.56,46.21l13.37,28.57s6.31,13.42,6.69,35.72c0,0,3.78,47.55,70.27,51.64l6.49,7.8Z" opacity="0.2"/>
<path d="M473.35,447.93,508,622.13,486.93,446.27S483.77,448.88,473.35,447.93Z" fill="#bcbec0"/>
<polygon points="387.01 451.86 355.12 616.09 379.61 452.2 387.01 451.86" fill="#bcbec0"/>
<path d="M479.89,248.51s43.74-2.19,46.87,38L505.7,398s3.45,54.12-32.35,49.92l-93.74,4.27L371,454.73l-18.14-23.64,16.49-36.28Z" fill="#a7a9ac"/>
<path d="M473.35,447.93c-3.14,4.8-6.59,5.59-6.59,5.59,1.55,40.39-18.63,138.56-18.63,138.56-8.19,9.83-27-2.18-27-2.18s2.45-73.15,1.64-102.64,0-59.76,0-59.76l-45.59,22.92c15.57,7.64,15.84,70.69,15.84,70.69l.24,3.54h0l4.94,70.69-30.58,6L336.49,493.27c-10.37-26.47-8.73-40.13-8.73-40.13C321.48,420.67,355.59,398,355.59,398H474.84C481.28,427.46,477.6,441.4,473.35,447.93Z" fill="#2f2e41" data-secondary="true"/>
<path d="M473.35,447.93l-7.73-22.87c-4.24-13.86-18.23-10-18.23-10-17.84-3.46-24.64,12.44-24.64,12.44l-45.59,22.92c15.57,7.64,15.84,70.69,15.84,70.69l.24,3.54c-4.67-19.64-15.71-48.82-15.71-48.82-12.59-6.83-7.71-13.46-7.71-13.46-.37-8.85-9.22-11.15-9.22-11.15-18.85-6.15,16.93-22.31,16.93-22.31,31.15-15,36.59-30.9,36.59-30.9h60.72C481.28,427.46,477.6,441.4,473.35,447.93Z" opacity="0.2"/>
<path d="M501.3,349.18c-6.06,7.79-33.19,4.33-33.19,4.33-.28,9.23-4.6,24.82-4.6,24.82h-86l3.27-2.66a2.76,2.76,0,0,0,.16-4.14c-6.48-6.09-5.94-18.22-5.94-18.22-.19-14.23-2.3-17.88-2.3-17.88a155.91,155.91,0,0,1-14.23,8.85C329.64,357.55,298,275.61,298,275.61l2.8-2.87,13.67-14a2,2,0,0,1,2.67-.2c8,6,27.17,32.66,27.17,32.66l13.6-34A32.74,32.74,0,0,1,370,238.05c13.63-10.68,33-10.4,33-10.4L434.33,231l30.9,6.51a12.67,12.67,0,0,1,2.41.53,20.79,20.79,0,0,1,8.79,6.14c11.69,12.71,18.81,38.92,18.81,38.92C507.94,322.06,501.3,349.18,501.3,349.18Z" fill="#0071f2" data-primary="true"/>
<path d="M407.18,202.84v17.68s-4.73,4.54-4.14,7.14l14.88,14.39H424a19,19,0,0,0,10.34-11V220.56l-26.46-18.37Z" fill="#f9b499"/>
<path d="M403.44,225.45s-7.87,1-7.46,7.23l2.55,18.65,16.78-11.8L403,227.65S402.32,227.33,403.44,225.45Z" fill="#0071f2" data-primary="true"/>
<path d="M427.24,240.24l15,11.09-2.14-19.11s-1.74-4.13-5.75-1.21A18.63,18.63,0,0,1,427.24,240.24Z" fill="#0071f2" data-primary="true"/>
<g opacity="0.4">
<path d="M403.44,225.45s-7.87,1-7.46,7.23l2.55,18.65,16.78-11.8L403,227.65S402.32,227.33,403.44,225.45Z" fill="#fff"/>
<path d="M427.24,240.24l15,11.09-2.14-19.11s-1.74-4.13-5.75-1.21A18.63,18.63,0,0,1,427.24,240.24Z" fill="#fff"/>
</g>
<polygon points="409.45 243.65 414.13 253.74 414.1 311.03 426.12 311.74 423.12 253.31 427.24 245.74 424.98 242.05 423.98 242.05 417.92 242.05 415.31 239.53 409.45 243.65" fill="#2f2e41" data-secondary="true"/>
<path d="M422,242.05s2.85,1.55,1.71,5.69c0,0-1.43,5.71-9.56,6v2.14s5.28-2.14,5.71,15.7l1.83,39.9,4.45.26-3-58.43,4.12-7.57L425,242.05Z" opacity="0.2"/>
<path d="M358.47,263.13c-7.75,17.17-5.58,27.28-5.58,27.28,2.88,8.24,0,12.57,0,12.57-3.23-3.4-5.23-4.1-5.23-4.1a64,64,0,0,1-1.18,16.34c-4.47-23.87-22.34-38.33-22.34-38.33a21.34,21.34,0,0,0-23.3-4.15l13.67-14a2,2,0,0,1,2.67-.2c8,6,27.17,32.66,27.17,32.66l13.6-34A32.74,32.74,0,0,1,370,238.05C363.21,245.88,358.47,263.13,358.47,263.13Z" opacity="0.2"/>
<ellipse cx="429.72" cy="191.45" rx="23.45" ry="29.68" fill="#f9b499"/>
<ellipse cx="403.04" cy="196.21" rx="5.68" ry="7.87" transform="translate(-45.19 191.08) rotate(-25.3)" fill="#f9b499"/>
<path d="M459.72,170.1c0,3.63-2.19,7.6-7.78,11.83l-1-3s-15.47-.51-22.68-3.69a5.2,5.2,0,0,0,1.42,4.62A18.66,18.66,0,0,1,416.48,172,98.89,98.89,0,0,1,407,183.88a31.57,31.57,0,0,0-.77,7.13s-3.8-3.55-6.6-1.92a3.67,3.67,0,0,0-2.19,2.36s-21.69-24.32,6.88-31.53c0,0-3.22-16.44,25.36-12.12,0,0,24.91,7.35,29.33,18.84A9.55,9.55,0,0,1,459.72,170.1Z" fill="#2f2e41" data-secondary="true"/>
<path d="M414.57,174.76s8.54,9.62,18.6,8.75c0,0-2.26-1.91-1.19-4.35a51.26,51.26,0,0,0,20,2.77s-.61-2.11-1-3c0,0-14.89-.42-22.68-3.69a6.43,6.43,0,0,0,1.42,4.62s-7.44.1-13.25-7.79Z" fill="#f7a48b"/>
<path d="M459.72,167.17v2.93c0,3.63-2.19,7.6-7.78,11.83l-1-3s-15.47-.51-22.68-3.69a5.2,5.2,0,0,0,1.42,4.62A18.66,18.66,0,0,1,416.48,172,98.89,98.89,0,0,1,407,183.88a31.57,31.57,0,0,0-.77,7.13s-3.8-3.55-6.6-1.92a3.67,3.67,0,0,0-2.19,2.36s-8.56-19.4,14.38-27.95c0,0-6.92-6.92,7.58-9.2,0,0-3.91,2.28-2.38,5.85,0,0,21.67-9.63,42,6.49C459.28,166.81,459.49,167,459.72,167.17Z" opacity="0.2"/>
<path d="M417,216.36s.67,11.83,17.34,12.63v-8.43A19.14,19.14,0,0,1,417,216.36Z" fill="#f7a48b"/>
<path d="M601.56,392.06l36.18,249a4.31,4.31,0,0,0,4.26,3.69h0a4.3,4.3,0,0,0,4.28-4.73L622.77,405.6l-1.11-11Z" fill="#d1d3d4"/>
<path d="M601.56,392.06l36.18,249a4.31,4.31,0,0,0,4.26,3.69h.46L611.19,405.6h11.58l-1.11-11Z" opacity="0.2"/>
<path d="M616.63,643.24s-14.16,1.55-15.81-7.18l53.09-12,8.73,7.32s4.48,9.89-11.33,11.9Z" fill="#e6e7e8"/>
<path d="M502.15,638.21s-4.68,6,12.39,8.35l65.39,2.13s10.89.91,8-12.48l-14.34-7.7s-46.72,2.92-47.25,3.72S502.15,638.21,502.15,638.21Z" fill="#e6e7e8"/>
<path d="M559.25,609.3s-6.4,11.51-25.51,15.23c0,0-35.58,1.88-31.59,13.68,0,0,4.51,8.88,47.78,3,0,0,33.19-7.16,38-5l.65-13.54L571.17,607Z" fill="#0071f2" data-primary="true"/>
<path d="M481.38,314.27c-.86,11.25-22.49,6.05-22.49,6.05-17-5.76-46.75-4-46.75-4,1.74,7.21-4,16.15-4,16.15L396,326.68s7.07-6.64,4.56-16.45L446.62,313a18.72,18.72,0,0,0,10.53-2.37,16.49,16.49,0,0,0,4.89-4.27,16.17,16.17,0,0,0,2.21-15.05c-3.81-11.11-12.11-40.94,3.39-53.22a20.79,20.79,0,0,1,8.79,6.14c-20.55,26.56,2.94,61.14,2.94,61.14Z" opacity="0.2"/>
<polygon points="460.61 305.52 488.02 378.33 618.73 378.33 618.73 374.71 595.09 371.09 570.52 305.52 460.61 305.52" fill="#0071f2" data-primary="true"/>
<polygon points="460.61 305.52 488.02 378.33 618.73 378.33 618.73 374.71 595.09 371.09 570.52 305.52 460.61 305.52" opacity="0.4"/>
<polygon points="471.03 311.74 491.91 364.17 582.5 364.17 564.07 311.74 471.03 311.74" fill="#fff" opacity="0.52"/>
<polygon points="486.93 351.67 520.77 311.74 529.07 311.74 490.01 359.4 486.93 351.67" fill="#fff" opacity="0.45"/>
<polygon points="515.25 364.17 549.64 311.74 564.07 311.74 565.68 316.33 533.67 364.17 515.25 364.17" fill="#fff" opacity="0.45"/>
<path d="M578.07,369.14l-7.23,4.39a12.33,12.33,0,0,1-4.58,1.69c-21.53,3.11-40-20.94-40-20.94l-44.83-52c-6.19-6.19-2.34-7.9-2.34-7.9-3.42-4.92.85-6,.85-6-4.27-3.62-3-4.05-3-4.05-.63-5.12,19.91,3.82,19.91,3.82a6.67,6.67,0,0,1-1.85-6.09,152.88,152.88,0,0,1,12,12.08c4.27,5.13,2.78,12.81,2.78,12.81.86,5.54,52.57,34.33,52.57,34.33l9.53,17.53Z" fill="#f9b499"/>
<polygon points="561.45 355.71 538.89 327.75 562.34 341.32 565.68 355.71 561.45 355.71" fill="#f7a48b"/>
<path d="M572.05,329.57s-12.74,6.9-11.14,23.41c0,0,.71,13.68,18.29,16.16,0,0,10.45.36,13.57-4.7l-13.39-10.75-4.8-16Z" fill="#0071f2" data-primary="true"/>
<path d="M572.05,329.57s-12.74,6.9-11.14,23.41c0,0,.71,13.68,18.29,16.16,0,0,10.45.36,13.57-4.7l-13.39-10.75-4.8-16Z" fill="#fff" opacity="0.4"/>
<polygon points="414.13 336.68 414.13 365.38 418.34 366.66 417.41 336.68 414.13 336.68" fill="#2f2e41" data-secondary="true"/>
<path d="M447.39,334.83v33.69a2.56,2.56,0,0,1-2.57,2.56h-26.7a2.57,2.57,0,0,1-2.57-2.56V334.83Z" fill="#d1d3d4"/>
<path d="M460.09,347.1c-2.14-6.85-12.7-5.71-12.7-5.71v5.29s9.56-.43,8.28,6.28c0,0-1.29,5.57-8.28,9.13v5.14C464.52,360.52,460.09,347.1,460.09,347.1Z" fill="#d1d3d4"/>
<polygon points="405.04 371.09 458.42 371.09 454 378.33 409.95 378.33 405.04 371.09" fill="#d1d3d4"/>
<path d="M447.39,365.48v3a2.56,2.56,0,0,1-2.57,2.56h-26.7a2.57,2.57,0,0,1-2.57-2.56V334.83h2S422.25,363.89,447.39,365.48Z" opacity="0.2"/>
<path d="M377.55,366.66s7.19,7.13,30.86,9.4l1.54,2.27H377.53l3.21-2.61a2.76,2.76,0,0,0,.08-4.21A11.54,11.54,0,0,1,377.55,366.66Z" opacity="0.2"/>
<path d="M397.68,618.65c-34.8,14.59-72.42,4-72.42,4-2.59-17.64,21.86-11,31.5-13.17s10.84-8.13,10.84-8.13l29-5.68Z" fill="#0071f2" data-primary="true"/>
<path d="M397.68,618.65v2.12c-9.17,14.35-58.78,9.64-58.78,9.64-13.41-1.17-13.64-7.76-13.64-7.76S362.88,633.24,397.68,618.65Z" fill="#2f2e41" data-secondary="true"/>
<path d="M445.89,594.07v32.3c-14.58,7.7-23.27,0-23.27,0-12.24-7.35-22.83-1.47-22.83-1.47-4-6,15.06-15.42,15.06-15.42,6.11-5.16,8.92-18.08,8.92-18.08C439.28,599.67,445.89,594.07,445.89,594.07Z" fill="#0071f2" data-primary="true"/>
<path d="M445.89,626.37a6.65,6.65,0,0,1-3.07,5.61,41.92,41.92,0,0,1-12.68,5.48c-26.1,4.47-30.35-12.56-30.35-12.56s10.59-5.88,22.83,1.47C422.62,626.37,431.31,634.07,445.89,626.37Z" fill="#2f2e41" data-secondary="true"/>
<path d="M621.7,219.05s6.4,2.55,9,6.4c0,0,12-11.1,37.56-11.52l-9.39-11.74-17.92-10.74Z" fill="#f9b499"/>
<path d="M639.3,197.71s.14,15.74,25.17,11.53l-5.64-7.05Z" fill="#f7a48b"/>
<path d="M621.7,219.05s8.77-6.94,14,0l1.48,2.08a41.76,41.76,0,0,0-6.57,4.32S628.15,221.53,621.7,219.05Z" fill="#f7a48b"/>
<path d="M687.44,228.15c-18.14-6.79-30.28-5.19-30.28-5.19s-13.45,1.58-32.71,12.79c-.14-1-.2-5,6.21-10.31,0,0,6.76-6.69,23.7-10.12,0,0,18.91-4.81,26.69,3.89Z" fill="#0071f2" data-primary="true"/>
<path d="M687.44,228.15c-18.14-6.79-30.28-5.19-30.28-5.19s-13.45,1.58-32.71,12.79c-.14-1-.2-5,6.21-10.31,0,0,6.76-6.69,23.7-10.12,0,0,18.91-4.81,26.69,3.89Z" fill="#fff" opacity="0.4"/>
<path d="M722.28,265.66l-.17,4.18-.23,5.27-4.69,111.48L675.9,417.74l-1,.77h-8.47l-30.78-3.46s-11,2-12.52-17.05c-.12-1.38-.17-2.88-.17-4.49,0,0-.45-6.52-1.36-15.19C620,363,617,341,612.56,336.58c0,0-12.69,27.7-21.93,28.47,0,0-20.87-5.59-18.58-35.48a7.27,7.27,0,0,1,.73-2.63l.65-1.37c2.63-5.76,8.8-21.47,12.13-48.05,2.57-20.48,21.57-30,21.57-30a149.52,149.52,0,0,1,17.32-11.8C643.71,224.54,657.16,223,657.16,223s12.14-1.6,30.28,5.19a104.21,104.21,0,0,1,12.41,5.6S721.85,238.27,722.28,265.66Z" fill="#0071f2" data-primary="true"/>
<path d="M722.28,273.87l-.41,1.24-46,142.64-1,.77h-8.47l-30.78-3.46s-12.7,2.31-12.7-21.55c0,0-3.46-50-10.38-56.92,0,0-12.69,27.69-21.93,28.46,0,0-20.87-5.59-18.58-35.48a7.08,7.08,0,0,1,.73-2.62c.17-.36.39-.82.64-1.37,0,0,4.11,32.95,9.32,20.46,0,0,9,26.86,20.61-.63a99.51,99.51,0,0,0,12.09-43.75l1.46,26a26.67,26.67,0,0,1,4.57.84s-3.12,8.33,0,8.53c0,0,3.13-.83,4.8,8.75,0,0,9.37,53.12,27.49,48.12,0,0,5-6.66,2.92-40.82l2.14-55.58s-3.55-22.79,29.1-25.39l34.18-2.3Z" opacity="0.2"/>
<path d="M494.62,289.71a44,44,0,0,0-17.72-5.33c-.63-5.12,19.91,3.82,19.91,3.82a6.67,6.67,0,0,1-1.85-6.09c1,3.22,4.14,7.6,4.14,7.6C499.74,292.28,494.62,289.71,494.62,289.71Z" fill="#f7a48b"/>
<path d="M479.89,288.43a13.95,13.95,0,0,1,6.44,5.61,13.95,13.95,0,0,1-6.44-5.61Z" fill="#f7a48b"/>
<path d="M479,294.41a9.34,9.34,0,0,1,3.45,1.45,9.22,9.22,0,0,1,2.71,2.58,9.51,9.51,0,0,1-3.45-1.45A9.75,9.75,0,0,1,479,294.41Z" fill="#f7a48b"/>
<path d="M666.47,469,660.91,591.4c.46,21.76-7,19.2-7,19.2l-19,.42c-4.18-50.46-23.19-143.43-23.19-143.43-12-.59-19.23.18-23.6,1.27h0c-5.78,1.42-6.53,3.38-6.53,3.38,3.7,6,4.63,13.9,4.63,13.9l2.31,136.53c-22.72,2-31.07-16.39-31.07-16.39L556,601.35,519.9,481.51c-12.06-34.32,0-45.92,0-45.92C529.18,419.82,623.8,403,623.8,403c2.26,12.86,11.84,12,11.84,12l35.48,3.46Z" fill="#2f2e41" data-secondary="true"/>
<path d="M588.54,622.67c-22.72,2-31.07-16.39-31.07-16.39L556,601.35s24.47,4.59,21.82-27.26l-5.94-84.43s-7.25-5.83,0-11.94c0,0-26.72-3.72-18.48-9,0,0,2.11-.53,15.66,0l19.08.17c-5.78,1.42-6.53,3.38-6.53,3.38,3.7,6,4.63,13.9,4.63,13.9Z" opacity="0.2"/>
<path d="M634.93,611s-2.73-.45-6,7.81c0,0-5.43,8.73-15.34,8.26,0,0-17.94,2.12-12.74,9,0,0,9.43,4.48,30.91-2.6,0,0,21.94-7.55,30.91-2.12,0,0-.62-14.47-4.91-22.34,0,0-20.1-3-20.1-2S634.93,611,634.93,611Z" fill="#0071f2" data-primary="true"/>
<polygon points="732.49 475.73 768.99 655.35 771.16 655.35 745.5 471.75 732.49 475.73" fill="#bcbec0"/>
<polygon points="635.99 476.81 611.77 655.35 613.94 655.35 647.91 475.01 635.99 476.81" fill="#bcbec0"/>
<ellipse cx="183.63" cy="209.25" rx="20.3" ry="29.03" transform="translate(-10.64 9.84) rotate(-2.98)" fill="#f9b499"/>
<path d="M149,177s-1.51-18.31,34.66-8.2c0,0,16.18,4.1,20.51,27.95,0,0-.41,22.92,2.82,32.91a6.87,6.87,0,0,0,1.86,2.93,17,17,0,0,1,4.36,6.17A7.68,7.68,0,0,1,205.87,249a27.72,27.72,0,0,1-5.1-.47s-2.89,0-2.65,3.62H187.76s-1.36-.49-1.45-7.23l.2-6.79s12.07-.77,16.72-20.08a38,38,0,0,0-5.71-29.19s-11.69,5.94-17.47-1.28c0,0-1,7.47-13.73,17.83,0,0-1.25,3.46.49,5.28l-4.28,13.06s7.16,24.3-9,31.53c0,0-6.75,1-8.92-1.93a10.32,10.32,0,0,0,4.58-3.61s-12.77,4.33-19.76-2.17c0,0,11.09-.48,5.55-13C135,234.53,112.11,179.36,149,177Z" fill="#2f2e41" data-secondary="true"/>
<path d="M264.86,375.47H245.58c-28.43-9.88-26.25-48.18-26.25-48.18-.25-5.31-2.41-3.61-2.41-3.61-3.38,4.57-3.62,40.71-3.62,40.71l-6.27,1c-4.82,1.45-7.47,13-7.47,13H141.12c-34.46.47-29-22.6-29-22.6L116,302c.71-31.56,31.37-47,31.37-47s1.71.77,6.2.29l8,12c7.54,14.12,14,19.7,17.5,21.84a5.7,5.7,0,0,0,7-.63c7.84-7.8,1.75-36.38,1.75-36.38h10.37c37.11,3.46,47.46,80.47,47.46,80.47.73,17.58,24.81,32.29,24.81,32.29C262.45,367.51,264.86,375.47,264.86,375.47Z" fill="#0071f2" data-primary="true"/>
<path d="M176.21,235.84a16.62,16.62,0,0,0,10.3,2.26l-.2,6.79s0,2.26.2,3.43C186.51,248.32,178.59,246.92,176.21,235.84Z" fill="#f7a48b"/>
<path d="M148.81,350.19v-44s9.26,17,10.69,33.4c0,0-.78,9.52,12.79,12.39l39.88,12.55-5.14.79-50.79-7.86s-9.78,4.57-11.48-2.87c0,0-4.43,1.44-6,4.18C138.76,358.8,139.54,350.19,148.81,350.19Z" opacity="0.2"/>
<path d="M254.53,375.47h-8.95c-28.43-9.88-26.25-48.18-26.25-48.18-.25-5.31-2.41-3.61-2.41-3.61s4.62-27.24-5.6-36.33c.71.5,12.42,8.87,12,29.35,0,0-3.62,29.17,13.28,42.66Z" opacity="0.2"/>
<path d="M294.86,375.47h-30c-2-8.6,5.53-10.59,5.53-10.59a55.4,55.4,0,0,1,11-.54h0C297.13,365.36,294.86,375.47,294.86,375.47Z" fill="#f9b499"/>
<path d="M294.86,375.47h-1.54c.68-7.43-11.14-10.92-11.86-11.12C297.13,365.36,294.86,375.47,294.86,375.47Z" fill="#f7a48b"/>
<path d="M213.3,364.39c18.71-.78,19.63,13.94,19.63,13.94H199.56s2.36-10.52,7.47-13Z" fill="#f9b499"/>
<path d="M281.46,463.82c0,13.41-1.16,21.53-2.57,26.44-2.07,7.17-4.63,7.52-4.63,7.52l-62.94,4.75c-33.39-1-26.7-16-26.7-16V448.89c-62.49-22.08-44.34-69.43-44.34-69.43l43.65,8.3L247.09,398l21.76,18.66a14.9,14.9,0,0,1,3,3.44C281.17,435.14,281.46,463.82,281.46,463.82Z" fill="#2f2e41" data-secondary="true"/>
<path d="M263.73,622.73C244.37,628.51,225,599.31,225,599.31V521.89c0-2.33-.67-3.22-1.24-3.55a.69.69,0,0,0-1,.44l-10.34,34.68-7.14,36.34a41.51,41.51,0,0,0,17.59,36.53l.07,0c-18.07,6.58-37.8-21.5-38.35-22.3h0V492.57c4.09,10.39,26.7,10,26.7,10l55.82-4.22c0,14.46-13.27,50.4-13.27,50.4l-8.14,42.79C243.36,606.43,263.73,622.73,263.73,622.73Z" fill="#f9b499"/>
<path d="M184.62,524.65s35.67-14.31,41.26-20.08l-1.65,14.15s.79.75.79,3.17c0,0,39.63-16.09,42.12-23.57l-52.44,4s-24.63,1.67-30.08-9.72Z" fill="#f7a48b"/>
<path d="M225.34,631.2c-25.28,2-40.1-18.46-40.1-18.46l-.62-8.68h0c.55.8,20.28,28.88,38.35,22.3,3.89-.21,4.88,1,4.91,2.18A2.73,2.73,0,0,1,225.34,631.2Z" fill="#0071f2" data-primary="true"/>
<path d="M265.54,626.63c-25.28,2-40.1-18.45-40.1-18.45l-.37-8.69h0c.55.8,20,28.89,38.1,22.3,3.89-.21,4.89,1,4.91,2.18A2.72,2.72,0,0,1,265.54,626.63Z" fill="#0071f2" data-primary="true"/>
<path d="M278.89,490.26c-2.07,7.17-4.63,7.52-4.63,7.52l-62.94,4.75c-33.39-1-26.7-16-26.7-16V448.89c-65.19-23.14-43.5-70.57-43.5-70.57s-5.21,45.08,39,54.74c0,0,6.69-.77,5.94,6.31,0,0-2.22,7.07,7.07,5.21,0,0-11.53,39.76,10.39,40.88,0,0,11.51,4.39,44.59-3.36C248.11,482.1,269.9,476.49,278.89,490.26Z" opacity="0.2"/>
<path d="M154.35,392.06l-36.18,249a4.31,4.31,0,0,1-4.26,3.69h0a4.3,4.3,0,0,1-4.28-4.73L133.15,405.6l1.1-11Z" fill="#d1d3d4"/>
<path d="M154.35,392.06l-36.18,249a4.31,4.31,0,0,1-4.26,3.69h-.46L144.72,405.6H133.15l1.1-11Z" opacity="0.2"/>
<path d="M312.09,261.21l-12.53,12.85s-23.62-35.1-13.75-34.53c0,0-7.53-10.73.94-7.43,0,0,5.87-2.21,11.29,6l6.1,7.66a0,0,0,0,1,0,0s-1.87-9.17,3.07-8.7c0,0,1.17,9.26,3,11.44C310.27,248.48,315.09,255.52,312.09,261.21Z" fill="#f9b499"/>
<path d="M287.22,242.05c2.33,2.9,4.52,5.9,6.62,8.95l-.3-.24a17,17,0,0,1,4.89,2.92,17.5,17.5,0,0,1,3.7,4.3,17.08,17.08,0,0,1,2.15,5.19,19.91,19.91,0,0,1,.5,5.53c-.19-.91-.29-1.81-.5-2.7s-.43-1.76-.77-2.6a20.42,20.42,0,0,0-2.39-4.76,18.7,18.7,0,0,0-3.55-3.93,18.08,18.08,0,0,0-4.44-2.81l-.21-.1-.09-.14C290.86,248.52,289,245.33,287.22,242.05Z" fill="#f7a48b"/>
<path d="M286.75,232.09a25.24,25.24,0,0,1,4.08,4.59,24.61,24.61,0,0,1,3,5.37,24.59,24.59,0,0,1-4.08-4.59A25,25,0,0,1,286.75,232.09Z" fill="#f7a48b"/>
<path d="M307.92,255.38c-2.59-1.89-3.77-9.64-3.77-9.64s-1.87-9.17,3.07-8.7C305.33,245.74,307.92,255.38,307.92,255.38Z" fill="#f7a48b"/>
<path d="M396,326.68l-17.44-10.13a7.13,7.13,0,0,1-3.39-4.54,21.24,21.24,0,0,1-.06-9s-9-6.54-7.68-8c0,0,1.8-2.28,11.22,1.26h0c1.73.64,3.69,1.49,5.95,2.55-.28-.34-3.95-4.81-1.95-7.63a.72.72,0,0,1,.33-.29,1,1,0,0,1,1.38.38,14.24,14.24,0,0,0,7.1,6s7.16,2,9.09,13C400.54,310.23,403.19,318.71,396,326.68Z" fill="#f9b499"/>
<path d="M389.94,301.29c-4.9,1.81-11-4.7-11.3-5.07,1.73.64,3.69,1.49,5.95,2.55-.28-.34-3.95-4.81-1.95-7.63a.72.72,0,0,1,.33-.29c1.15,3.65,4.8,7.1,4.8,7.1C391.61,300.28,389.94,301.29,389.94,301.29Z" fill="#f7a48b"/>
<path d="M375.22,303a6.71,6.71,0,0,1,3.12.33,6.55,6.55,0,0,1,2.7,1.6,6.6,6.6,0,0,1-3.12-.32A6.82,6.82,0,0,1,375.22,303Z" fill="#f7a48b"/>
<ellipse cx="621.7" cy="184.1" rx="23.9" ry="37.03" fill="#f9b499"/>
<path d="M601.37,164.5s5.77,1.82,9.08-1.21c0,0,1.73,12.31,11.25,10.38,0,0-.38,8.3,7,8.38l3.5-15.88-10.48-9.42-15.1,1.92-3.7,2.57A17.07,17.07,0,0,0,601.37,164.5Z" fill="#f7a48b"/>
<path d="M602.9,161.24a30.51,30.51,0,0,0-2.51,6.08s-8.13-5.57,0-23.85c0,0,4.86-13.46,17-6.92,0,0,6.73,2.31,16.93,1.35,0,0,15-2.5,18.08,5.77,0,0,23.27-1.35,22.31,22.5,0,0,1,42.89-23.08,38.66,0,0-11-.38-12.31-7.12,0,0,.57-11.64-4.81-13.61,0,0-4.81,2.84-6.35-3.7,0,0-1.54-11.15-8.08-9.42,0,0-3.65.77-5-5.39l-1.51-6.19a1.35,1.35,0,0,0-2.17-.72A12,12,0,0,1,602.9,161.24Z" fill="#2f2e41" data-secondary="true"/>
<ellipse cx="637.33" cy="186.15" rx="5.15" ry="6.98" fill="#f9b499"/>
<path d="M777.12,373.12a159.11,159.11,0,0,0-8.38,60.53c-3.06,50.62-30.84,44.91-30.84,44.91L632.45,482c-22.82-2.31-23-18.85-23-18.85a36,36,0,0,1,1.25-12.79c4-13.06,15.48-14.48,15.48-14.48a200.05,200.05,0,0,0,30.3-11.1c22.06-9,16.29-24.64,16.29-24.64l-5.33-65.48c-2.28-22.84,1.52-38.07,1.52-38.07,9.4-16.09,30.36-21.3,48.86-22.49A164.27,164.27,0,0,1,752,275.65C816.05,279.17,777.12,373.12,777.12,373.12Z" fill="#a7a9ac"/>
<path d="M717.85,274.1c-26.05,15.38-27.59,72.1-27.59,72.1l-3.46,47.7c-1.14,41.93-25,44.23-25,44.23-18,6-39.87,10.26-51.07,12.23,4-13.06,15.48-14.48,15.48-14.48a200.05,200.05,0,0,0,30.3-11.1c22.06-9,16.29-24.64,16.29-24.64l-5.33-65.48c-2.28-22.84,1.52-38.07,1.52-38.07C678.39,280.5,699.35,275.29,717.85,274.1Z" opacity="0.2"/>
<path d="M374.72,309.31a8.89,8.89,0,0,1,6.32,2.43,7.8,7.8,0,0,1-3.4-.59A7.92,7.92,0,0,1,374.72,309.31Z" fill="#f7a48b"/>
<path d="M623.12,398H99.64V378.32h522c.91,8.67,1.36,15.19,1.36,15.19C623,395.12,623,396.62,623.12,398Z" fill="#939598"/>
<circle cx="162.53" cy="216.48" r="7.24" fill="#f9b499"/>
<circle cx="371.06" cy="65.07" r="40.03" transform="translate(62.67 281.44) rotate(-45)" fill="#ebebeb"/>
<circle cx="372.89" cy="65.95" r="38.18" transform="translate(172.55 387.3) rotate(-68.09)" fill="#dbdbdb"/>
<circle cx="372.89" cy="65.97" r="35.77" fill="#fff"/>
<path d="M407.87,58.37c-16.29,9.87-43.08,26.07-58,35a35.86,35.86,0,0,1-9.78-13.15l49.5-45.87A35.84,35.84,0,0,1,407.87,58.37Z" fill="#ebebeb" opacity="0.5" style="isolation:isolate"/>
<path d="M408.65,67.27a35.3,35.3,0,0,1-2.37,11.62L361.66,100A38.46,38.46,0,0,1,356,97.58C369.51,89.73,394.14,75.56,408.65,67.27Z" fill="#ebebeb" opacity="0.5" style="isolation:isolate"/>
<rect x="372.55" y="32.78" width="0.69" height="5.43" fill="#c7c7c7"/>
<rect x="357.31" y="36.84" width="0.69" height="5.43" transform="translate(28.14 184.12) rotate(-30)" fill="#c7c7c7"/>
<rect x="346.15" y="48" width="0.69" height="5.43" transform="translate(129.33 325.43) rotate(-60)" fill="#c7c7c7"/>
<rect x="339.72" y="65.61" width="5.43" height="0.69" fill="#c7c7c7"/>
<rect x="400.65" y="65.61" width="5.43" height="0.69" fill="#c7c7c7"/>
<rect x="396.57" y="50.35" width="5.43" height="0.69" transform="translate(28.2 206.56) rotate(-30.02)" fill="#c7c7c7"/>
<rect x="385.41" y="39.21" width="5.43" height="0.69" transform="translate(159.98 356.02) rotate(-60.03)" fill="#c7c7c7"/>
<polygon points="373.42 35.24 374.6 68.37 371.19 68.33 372.5 35.23 373.42 35.24" fill="#c7c7c7"/>
<polygon points="394.06 54.4 371.76 68.64 370.14 65.65 393.63 53.59 394.06 54.4" fill="#a6a6a6"/>
<path d="M374.13,65.92A1.17,1.17,0,0,1,373,67.11a1.17,1.17,0,0,1,0-2.34h0A1.17,1.17,0,0,1,374.13,65.92Z" fill="#c7c7c7"/>
<g id="e541b7f9-29c2-4589-9f9d-03cb0ef0751d" data-name="freepik--Stats--inject-593">
<rect x="651.88" y="25.74" width="94.02" height="76.43" fill="#ebebeb"/>
<polygon points="663.99 102.1 651.88 114.19 651.88 102.18 663.99 102.1" fill="#ebebeb"/>
<path d="M698.9,35.28c-13.26,0-26.53,0-39.79-.12C672.37,35,685.64,35,698.9,35h39.73Z" fill="#a6a6a6"/>
<path d="M698.84,38.94c-13.26,0-26.52,0-39.78-.12,13.26-.12,26.52-.12,39.78-.12l39.79.12Z" fill="#a6a6a6"/>
<path d="M698.84,42.67c-13.26,0-26.52,0-39.78-.12,13.26-.12,26.52-.12,39.78-.12l39.79.12Z" fill="#a6a6a6"/>
<path d="M698.84,46.41c-13.26,0-26.52,0-39.78-.12,13.26-.12,26.52-.12,39.78-.12l39.79.12Z" fill="#a6a6a6"/>
<path d="M698.9,50.09c-13.26,0-26.53,0-39.79-.12,13.26-.13,26.53-.13,39.79-.13l39.73.18Z" fill="#a6a6a6"/>
<path d="M698.84,53.87c-13.26,0-26.52,0-39.78-.12,13.26-.12,26.52-.12,39.78-.12l39.79.12Z" fill="#a6a6a6"/>
<path d="M698.84,57.61c-13.26,0-26.52,0-39.78-.13,13.26-.12,26.52-.12,39.78-.12l39.79.12Z" fill="#a6a6a6"/>
<path d="M698.84,61.34c-13.26,0-26.52,0-39.78-.12,13.26-.12,26.52-.12,39.78-.12l39.79.12Z" fill="#a6a6a6"/>
<path d="M698.84,65.07c-13.26,0-26.52,0-39.78-.12,13.26-.12,26.52-.12,39.78-.12l39.79.12Z" fill="#a6a6a6"/>
<path d="M698.84,68.82c-13.26,0-26.52,0-39.78-.13,13.26-.12,26.52-.12,39.78-.12l39.79.12Z" fill="#a6a6a6"/>
<path d="M698.84,72.54c-13.26-.12-26.52,0-39.78-.12,13.26-.12,26.52-.12,39.78-.12l39.79.12Z" fill="#a6a6a6"/>
<path d="M698.84,76.27c-13.26,0-26.52,0-39.78-.12C672.32,76,685.58,76,698.84,76l39.79.12Z" fill="#a6a6a6"/>
<path d="M698.84,80c-13.26,0-26.52,0-39.78-.12,13.26-.12,26.52-.12,39.78-.12l39.79.12Z" fill="#a6a6a6"/>
<path d="M698.9,83.75c-13.26,0-26.53,0-39.79-.12,13.26-.13,26.53-.13,39.79-.13l39.73.11Z" fill="#a6a6a6"/>
<path d="M698.84,87.48c-13.26-.13-26.52,0-39.78-.13,13.26-.12,26.52-.12,39.78-.12l39.79.12Z" fill="#a6a6a6"/>
<rect x="668.25" y="42.68" width="6.03" height="49.02" fill="#0071f2" data-primary="true"/>
<rect x="679.46" y="48.32" width="6.03" height="43.38" fill="#0071f2" data-primary="true"/>
<rect x="690.66" y="54.6" width="6.03" height="37.11" fill="#0071f2" data-primary="true"/>
<rect x="701.85" y="46.28" width="6.03" height="45.41" fill="#0071f2" data-primary="true"/>
<rect x="713.04" y="59.36" width="6.03" height="32.34" fill="#0071f2" data-primary="true"/>
<rect x="724.22" y="74.66" width="6.03" height="17.05" fill="#0071f2" data-primary="true"/>
<path d="M736.68,47.21,736.8,62c.11,9.87.11,19.75.11,29.62v.44h-39.1l-19.35-.15-19.35-.27,19.35-.27,19.35-.14h38.71l-.39.45q0-14.81.12-29.62l.1-14.81.17-14.81Z" fill="#a6a6a6"/>
<rect x="724.24" y="94.83" width="6.03" height="0.63" fill="#a6a6a6"/>
<rect x="713.04" y="94.83" width="6.03" height="0.63" fill="#a6a6a6"/>
<rect x="701.85" y="94.83" width="6.03" height="0.63" fill="#a6a6a6"/>
<rect x="690.64" y="94.83" width="6.03" height="0.63" fill="#a6a6a6"/>
<rect x="679.46" y="94.83" width="6.03" height="0.63" fill="#a6a6a6"/>
<rect x="668.27" y="94.83" width="6.03" height="0.63" fill="#a6a6a6"/>
</g>
<g id="ae302ca1-24a7-49db-acda-3a6bf97b6e21" data-name="freepik--Target--inject-593">
<path d="M551.91,89.41a44.93,44.93,0,0,1-71.74,36.08l-22,5.63,9.17-20.5a45,45,0,1,1,84.58-21.21Z" fill="#fff"/>
<path d="M551.91,89.41A45.25,45.25,0,0,1,545.24,113a48.44,48.44,0,0,1-3.57,5.09,49.16,49.16,0,0,1-4.31,4.47,26.44,26.44,0,0,1-2.32,2l-2.47,1.88c-.82.63-1.75,1.11-2.61,1.68l-1.35.81c-.44.27-.93.47-1.34.7l-2.8,1.34-2.93,1.09a22.16,22.16,0,0,1-3,.92c-1,.24-2,.58-3,.74a44.31,44.31,0,0,1-6.19.74,38.24,38.24,0,0,1-6.24,0,45.31,45.31,0,0,1-23.17-8.63l.41.08-22.06,5.8-1.18.31.51-1.11,9.11-20.54V111a44.6,44.6,0,0,1-5.38-19.81A45.18,45.18,0,0,1,495.9,45.56,44.71,44.71,0,0,1,534.6,54,45.17,45.17,0,0,1,551.91,89.41Zm0,0a44.66,44.66,0,0,0-73.57-34,46.14,46.14,0,0,0-11.93,16,44.44,44.44,0,0,0,1.48,38.85l.15.28-.13.28-9.21,20.49-.69-.82L480.06,125l.23-.07.19.15a44.29,44.29,0,0,0,22.65,8.75,38.26,38.26,0,0,0,6.15.1,45.22,45.22,0,0,0,6.13-.66c1-.14,2-.47,3-.7a20.08,20.08,0,0,0,3-.86l2.92-1,2.79-1.35a12.87,12.87,0,0,0,1.34-.67l1.35-.79c.88-.56,1.79-1,2.63-1.63l2.49-1.85a26.48,26.48,0,0,0,2.34-2,48.82,48.82,0,0,0,4.31-4.44,52.37,52.37,0,0,0,3.58-5A45.12,45.12,0,0,0,551.91,89.41Z" fill="#2f2e41" data-secondary="true"/>
<ellipse cx="510" cy="89.6" rx="29.89" ry="26.34" transform="matrix(0.01, -1, 1, 0.01, 414.89, 598.61)" fill="#0071f2" data-primary="true"/>
<polygon points="504.57 59.59 510.76 59.71 509.08 119.49 502.87 119.35 504.57 59.59" fill="#0071f2" data-primary="true"/>
<g opacity="0.1">
<ellipse cx="510" cy="89.73" rx="29.89" ry="26.34" transform="translate(414.76 598.73) rotate(-89.38)"/>
<polygon points="504.57 59.72 510.76 59.84 509.08 119.61 502.87 119.48 504.57 59.72"/>
</g>
<ellipse cx="503.83" cy="89.36" rx="29.89" ry="26.34" transform="translate(409.43 592.27) rotate(-89.43)" fill="#0071f2" data-primary="true"/>
<path d="M524.6,85.86c1.74,12.72-6,24.65-17.17,26.65s-21.7-6.73-23.42-19.4S490,68.47,501.16,66.45,522.86,73.13,524.6,85.86Z" fill="#fff"/>
<path d="M518.93,86.87c1.25,9.16-4.28,17.78-12.37,19.22s-15.65-4.82-16.9-14S494,74.32,502,72.88,517.76,77.7,518.93,86.87Z" fill="#0071f2" data-primary="true"/>
<path d="M513.21,87.89c.77,5.59-2.61,10.77-7.53,11.7s-9.53-2.94-10.28-8.51,2.61-10.77,7.52-11.71S512.46,82.3,513.21,87.89Z" fill="#fff"/>
<path d="M508.34,88.78a4.55,4.55,0,0,1-3.42,5.28,4,4,0,0,1-4.55-3.46c0-.12,0-.23,0-.34a4.52,4.52,0,0,1,3.35-5.21,4,4,0,0,1,4.61,3.38C508.32,88.54,508.33,88.66,508.34,88.78Z" fill="#0071f2" data-primary="true"/>
<polygon points="503.48 89.65 463.69 77.94 463.96 77.16 503.75 88.89 503.48 89.65" fill="#2f2e41" data-secondary="true"/>
<polygon points="460.96 79.65 461.13 79.56 464.16 78.09 457.39 75.77 454.16 77.33 460.96 79.65" fill="#2f2e41" data-secondary="true"/>
<path d="M456,71.88,457.66,75l6.73,2.32a16.17,16.17,0,0,1-1.61-3.12Z" fill="#2f2e41" data-secondary="true"/>
<polygon points="505.23 88.4 504.28 90.96 500.76 91.19 502.75 88.97 502.53 86 505.23 88.4" fill="#2f2e41" data-secondary="true"/>
</g>
<g id="b09a5808-f54b-4571-b91b-44bdb97334ef" data-name="freepik--Video--inject-593">
<rect x="199.57" y="65.86" width="94.02" height="76.43" fill="#ebebeb"/>
<path d="M240.42,110.24a8.7,8.7,0,1,1,12.31,0A8.7,8.7,0,0,1,240.42,110.24Z" fill="#0071f2" data-primary="true"/>
<polygon points="243.56 107.48 243.56 100.68 250.54 104.08 243.56 107.48" fill="#fff"/>
<path d="M277.07,135.66H215.2a.58.58,0,0,0,0,1.14h61.87a.58.58,0,0,0,.48-.66A.56.56,0,0,0,277.07,135.66Z" fill="#c7c7c7"/>
<path d="M215.2,135.66a.58.58,0,0,0,0,1.14h31.59v-1.14Z" fill="#0071f2" data-primary="true"/>
<path d="M245.66,136.22a1.13,1.13,0,0,1,1.13-1.13,1.15,1.15,0,1,1-1.13,1.16Z" fill="#0071f2" data-primary="true"/>
<polygon points="286.43 134.39 286.43 134.92 286.43 136.05 286.95 136.05 286.95 134.92 288.08 134.92 288.08 134.39 286.95 134.39 286.43 134.39" fill="#fff"/>
<polygon points="289.85 134.39 288.7 134.39 288.7 134.92 289.85 134.92 289.85 136.05 290.36 136.05 290.36 134.92 290.36 134.39 289.85 134.39" fill="#fff"/>
<polygon points="289.85 137.69 288.7 137.69 288.7 138.21 289.85 138.21 290.36 138.21 290.36 137.69 290.36 136.56 289.85 136.56 289.85 137.69" fill="#fff"/>
<polygon points="286.95 136.56 286.43 136.56 286.43 137.69 286.43 138.21 286.95 138.21 288.08 138.21 288.08 137.69 286.95 137.69 286.95 136.56" fill="#fff"/>
<polygon points="203.71 134.56 203.71 137.88 206.38 136.22 203.71 134.56" fill="#fff"/>
<path d="M207.88,136.28a.62.62,0,0,1,.09-.38.34.34,0,0,1,.46-.14.38.38,0,0,1,.14.14.62.62,0,0,1,.1.38.69.69,0,0,1-.1.37.34.34,0,0,1-.46.14.32.32,0,0,1-.14-.14A.68.68,0,0,1,207.88,136.28Zm.62,0a.6.6,0,0,0-.08-.29.19.19,0,0,0-.15-.09.21.21,0,0,0-.15.09.6.6,0,0,0-.08.29.6.6,0,0,0,.08.28.21.21,0,0,0,.15.09.19.19,0,0,0,.15-.09.68.68,0,0,0,0-.28Z" fill="#fff"/>
<path d="M209,136.28a.62.62,0,0,1,.1-.38.35.35,0,0,1,.3-.18.33.33,0,0,1,.28.18.63.63,0,0,1,.11.38.7.7,0,0,1-.11.37.32.32,0,0,1-.43.15.31.31,0,0,1-.15-.15A.61.61,0,0,1,209,136.28Zm.61,0a.41.41,0,0,0-.08-.29.16.16,0,0,0-.13-.09.19.19,0,0,0-.16.09.48.48,0,0,0,0,.29.45.45,0,0,0,0,.28.19.19,0,0,0,.16.09.14.14,0,0,0,.13-.09.42.42,0,0,0,.08-.28Z" fill="#fff"/>
<path d="M210.22,136a.12.12,0,0,1,.12.11.12.12,0,0,1-.12.12.12.12,0,0,1,0-.23Zm0,.62a.12.12,0,1,1-.12.12A.12.12,0,0,1,210.22,136.6Z" fill="#fff"/>
<path d="M210.45,136.28a.63.63,0,0,1,.11-.38.33.33,0,0,1,.45-.14.32.32,0,0,1,.14.14.62.62,0,0,1,.09.38.6.6,0,0,1-.09.37.33.33,0,0,1-.46.14.35.35,0,0,1-.13-.14A.7.7,0,0,1,210.45,136.28Zm.62,0A.59.59,0,0,0,211,136s-.09-.09-.15-.09a.16.16,0,0,0-.14.09.51.51,0,0,0-.08.29.6.6,0,0,0,.08.28.16.16,0,0,0,.14.09.18.18,0,0,0,.15-.09.58.58,0,0,0,.07-.28Z" fill="#fff"/>
<path d="M211.58,136.28a.62.62,0,0,1,.1-.38.32.32,0,0,1,.45-.14.32.32,0,0,1,.14.14.7.7,0,0,1,.11.38.7.7,0,0,1-.11.37.33.33,0,0,1-.46.14.29.29,0,0,1-.13-.14A.69.69,0,0,1,211.58,136.28Zm.62,0a.6.6,0,0,0-.08-.29.19.19,0,0,0-.15-.09.24.24,0,0,0-.15.09.58.58,0,0,0-.06.29.57.57,0,0,0,.06.28.24.24,0,0,0,.15.09.19.19,0,0,0,.15-.09A.6.6,0,0,0,212.2,136.28Z" fill="#fff"/>
<path d="M280.07,136.28a.7.7,0,0,1,.11-.38.35.35,0,0,1,.29-.18.31.31,0,0,1,.29.18.57.57,0,0,1,.11.38.62.62,0,0,1-.11.37.35.35,0,0,1-.29.18.4.4,0,0,1-.29-.18A.7.7,0,0,1,280.07,136.28Zm.62,0a.59.59,0,0,0-.07-.29.2.2,0,0,0-.15-.09.17.17,0,0,0-.14.09.55.55,0,0,0,0,.57.17.17,0,0,0,.14.09.2.2,0,0,0,.15-.09A.58.58,0,0,0,280.69,136.28Z" fill="#fff"/>
<path d="M281.78,136.15a.44.44,0,0,1,.11.29.4.4,0,0,1-.11.27.42.42,0,0,1-.28.12h0a.4.4,0,0,1-.27-.12.09.09,0,0,1,0-.12.08.08,0,0,1,.12,0,.22.22,0,0,0,.3.07.22.22,0,0,0,.07-.3.23.23,0,0,0-.07-.07.21.21,0,0,0-.29,0h0a.09.09,0,0,1-.12,0h0v-.41h.51a.1.1,0,0,1,.09.1h0a.08.08,0,0,1-.09.08h-.38v.16h.11A.48.48,0,0,1,281.78,136.15Z" fill="#fff"/>
<path d="M282.31,136a.12.12,0,0,1,.1.11.12.12,0,0,1-.1.12.12.12,0,1,1,0-.23Zm0,.62a.12.12,0,0,1,0,.24.12.12,0,1,1,0-.24Z" fill="#fff"/>
<path d="M283.13,136.15a.38.38,0,0,1,.1.29.34.34,0,0,1-.1.27.45.45,0,0,1-.29.12.36.36,0,0,1-.26-.12.08.08,0,0,1,.12-.12H283a.38.38,0,0,0,0-.15.43.43,0,0,0,0-.16.17.17,0,0,0-.17,0h0a.12.12,0,0,1,0-.14L283,136h-.26a.1.1,0,0,1-.08-.1.09.09,0,0,1,.08-.08h.47a.08.08,0,0,1,.08.08h0l-.19.21Z" fill="#fff"/>
<path d="M284.07,136.15a.44.44,0,0,1,.11.29.4.4,0,0,1-.11.27.42.42,0,0,1-.28.12h0a.38.38,0,0,1-.27-.12.08.08,0,0,1,.12-.12.22.22,0,0,0,.3,0,.2.2,0,0,0,.06-.14.21.21,0,0,0-.22-.21.2.2,0,0,0-.14.06.09.09,0,0,1-.12,0h0v-.41H284a.1.1,0,0,1,.08.1.08.08,0,0,1-.08.08h-.39v.16h.11A.48.48,0,0,1,284.07,136.15Z" fill="#fff"/>
<path d="M276.38,74.44a2.5,2.5,0,0,1-.79.33,2.71,2.71,0,0,1-2.1-.33,2.79,2.79,0,0,1-1.24-1.69,2.76,2.76,0,1,1,4.13,1.69Z" fill="#a6a6a6"/>
<path d="M275.78,71.77a.86.86,0,0,1-.84.86.85.85,0,0,1,0-1.69h0A.84.84,0,0,1,275.78,71.77Z" fill="#fff"/>
<path d="M276.38,74.1v.34a2.5,2.5,0,0,1-.79.33,2.71,2.71,0,0,1-2.1-.33V74.1a1.45,1.45,0,1,1,2.89-.28A1.31,1.31,0,0,1,276.38,74.1Z" fill="#fff"/>
<rect x="283.87" y="69.97" width="3.68" height="0.73" fill="#a6a6a6"/>
<rect x="283.87" y="71.43" width="3.68" height="0.73" fill="#a6a6a6"/>
<rect x="283.87" y="72.9" width="3.68" height="0.73" fill="#a6a6a6"/>
<rect x="205.6" y="70.44" width="59.56" height="1.59" fill="#a6a6a6"/>
<rect x="205.6" y="73.59" width="19.4" height="1.25" fill="#c7c7c7"/>
<polygon points="199.57 142.29 199.57 154.3 211.66 142.21 199.57 142.29" fill="#ebebeb"/>
</g>
</svg>