 <!DOCTYPE svg PUBLIC "-//W3C//DTD SVG 1.1//EN" "http://www.w3.org/Graphics/SVG/1.1/DTD/svg11.dtd">
<svg id="ba94e2b6-0e20-4454-b39d-985b2096db90" data-name="Layer 1" xmlns="http://www.w3.org/2000/svg" width="865.76" height="682.89" viewBox="0 0 865.76 682.89">
<defs>
<style xmlns="http://www.w3.org/1999/xhtml">*, ::after, ::before { box-sizing: border-box; }
img, svg { vertical-align: middle; }
</style>
<style xmlns="http://www.w3.org/1999/xhtml">*, body, html { -webkit-font-smoothing: antialiased; }
img, svg { max-width: 100%; }
</style>
</defs>
<path d="M222.17,580.25v31.14l-.78,3.1a6.36,6.36,0,0,0,6.17,7.91h16.27a6.36,6.36,0,0,0,5.67-9.23l0,0-9.3-35.1S231.49,593.16,222.17,580.25Z" fill="#0071f2" data-primary="true"/>
<path d="M91.12,194.82,55.73,147.67s-4.32,2.63-12.67-7.16L34.45,134a12.73,12.73,0,0,1-3.22-12.91c0-.11.07-.21.1-.31,3.35-10.08,17-11.61,22.78-2.68l5.94,11.47s2.59-1.44,2-5.76c0,0-2.88-8.92,2.3-9.21l1.44,9.79s2.59,9.21.57,15.83c0,0,31.1,29.94,60.46,47.22Z" fill="#f9b499"/>
<path d="M116.47,189.66c-7.55.74-44,9.53-44,9.53-.34,18.46,8.37,26.47,8.37,26.47s18.63-1,20.2,5.4a117.14,117.14,0,0,0,8.48,33.73,114.62,114.62,0,0,1,8,27.79,166.4,166.4,0,0,1,2,21,308.34,308.34,0,0,1-1.56,32.75s27.33,8,55.73-11.67c0,0,25.09-15.85,35.54-14.46,0,0-23.34-34.14-17.42-70.19,0,0,3-12.72.7-22.3,0,0,7.45-4,10.08-9.57,0,0-2-13.93-27.05-29,0,0-3,6.18-8.29,4.71Z" fill="#0071f2" data-primary="true"/>
<path d="M192.41,246.72l23.92,32.89s-4.35-39-13.77-61.43c0,0-1.77,4.48-10.08,9.57C192.48,227.75,194,233.79,192.41,246.72Z" fill="#f9b499"/>
<path d="M325.89,501.28l18.84,36.12a7.81,7.81,0,0,0,3.83,3.65c2,.83,4.56.84,6.34-3a13.82,13.82,0,0,0,.9-8.23c-2.27-12.42-11.58-59.75-25.2-82.11C330.6,447.66,328.86,490,325.89,501.28Z" fill="#f9b499"/>
<path d="M392.41,256.32s6.07,5,7,6.36c0,0-1-1.36-4.16-1.36h-3.53A42.18,42.18,0,0,1,392.41,256.32Z" fill="#f7aa92"/>
<path d="M409.13,238.4l6.21-8.07s-10.24-16-30.59-35.61c0,0,.66,17.59-20.77,24.63a21.9,21.9,0,0,1-5,1c-6.35.51-22,.35-29.25-12.25a18.39,18.39,0,0,1-.59-17.22s-14.88-8.89-11.05-34.07c0,0-7.26,1-10.28,13.09,0,0,7.66,10.87,2.42,31.83,0,0-5.24,25.59.81,40.9,0,0,4.43,23.17,3.22,35.87,0,0,8.66,24.17,10.88,38.68,0,0,35.66,23.57,73.94-4.84,0,0-18.34-47.95,1.41-77Z" fill="#0071f2" data-primary="true"/>
<path d="M396.45,261.32c4.94.36,5.3,6.68,4.58,12.41-.66,5.35-4.45,9.28-8.87,9.28h-7.84c-5.8,0-10.15-6.65-8.73-13.53,0-.09,0-.18.05-.26,1-4.71,4.63-7.9,8.62-7.9Z" fill="#f9b499"/>
<path d="M353.11,378.82,362,473l2.15,18.59L372.51,605s6.19-3,11,1.35c0,0,12.65-102.66,3.64-129.66a12.7,12.7,0,0,1-.42-6.91,11.7,11.7,0,0,1,.54-1.77,26.38,26.38,0,0,0,1.45-4.57c2.62-13,12.48-63.83,11.78-89.58C400.54,373.87,372.47,378.81,353.11,378.82Z" fill="#f9b499"/>
<path d="M351.69,371.26l-19.87,39.22s-.55-31.75-1.22-43.12Z" fill="#f9b499"/>
<path d="M351.69,378.81v-7.55l-21.09-3.9s-2.11-43.34-5.48-50.18c0,0,36.45,23.5,73.94-4.84,0,0,7.05,40.7,2.62,61.27A225.91,225.91,0,0,1,351.69,378.81Z" fill="#2f2e41" data-secondary="true"/>
<path d="M223.45,362l2.06-28.48S294,345.3,324.22,312.34c0,0,8.16,22.29,7.6,98.14,0,0-1,53-5.93,102.74,0,0-12.72,83-14.06,89.45,0,0-6.18-7-15,0,0,0-5.11-123.29-2.69-135.65,0,0-11.28-85.42-11-94.29l-7.53-.27s-3.29,56.68-22,95.44a51.82,51.82,0,0,1-8.6,12.64l-59.41,64.65s-13.16,2.95-11.81-12.36c0,0,22.94-49.1,38-71.63a34.24,34.24,0,0,0,5.7-16.52Z" fill="#2f2e41" data-secondary="true"/>
<path d="M223.45,362l2.06-28.48S294,345.3,324.22,312.34c0,0,8.16,22.29,7.6,98.14,0,0-1,53-5.93,102.74,0,0-12.72,83-14.06,89.45,0,0-6.18-7-15,0,0,0-5.11-123.29-2.69-135.65,0,0-11.28-85.42-11-94.29l-7.53-.27s-3.29,56.68-22,95.44a51.82,51.82,0,0,1-8.6,12.64l-59.41,64.65s-13.16,2.95-11.81-12.36c0,0,22.94-49.1,38-71.63a34.24,34.24,0,0,0,5.7-16.52Z" opacity="0.2"/>
<path d="M245.63,147.67s28.8-9.15,50.62,0c0,0,19.46,8.12,21.82,9.14,0,0-7.06.72-10.28,13.09,0,0-6.68-12.43-25.55-17.25a248.19,248.19,0,0,0-38.46.07A49.1,49.1,0,0,0,245.63,147.67Z" fill="#f9b499"/>
<path d="M252.06,152.06s-25.13,1.2-41.51,7.65c0,0-4.24,29.28,9.41,29.28,0,0,21.93,5.14,33.13-13.14C253.09,175.85,258.42,168.37,252.06,152.06Z" fill="#f9b499"/>
<path d="M210.59,160.7s-.67,5.09-.65,7.65c0,0,29.93,15.54,39.19-16.1,0,0-5.83,0-8.73,1.33Z" fill="#f7aa92"/>
<polygon points="302.43 215.72 308.1 222.95 308.94 210.09 302.43 215.72" fill="#f9b499"/>
<path d="M331.45,168.34s-.81,13.71,2.53,25.54l5.47-2.82-.07-8.36S333,173.86,331.45,168.34Z" fill="#2f2e41" data-secondary="true"/>
<path d="M331.45,168.34s-.81,13.71,2.53,25.54l5.47-2.82-.07-8.36S333,173.86,331.45,168.34Z" opacity="0.2"/>
<path d="M339.38,182.09l.07,9L334,193.88s-.9-.18-4.86-3c0,0-6.75,13.25,5.64,23.38a25.22,25.22,0,0,0,7.68,4.28,36.48,36.48,0,0,0,24.13.15,27.92,27.92,0,0,0,17-17.05,27.08,27.08,0,0,0,1.15-6.92c-1.21-1.12-2.5-2.27-3.88-3.42s-2.82-2.3-4.18-3.32a22.27,22.27,0,0,1-2.08,1.38,25.53,25.53,0,0,1-3.24,1.53c-.62.25-1.14.44-1.53.57l-4.23-1.61,0-4.14S352.51,196.06,339.38,182.09Z" fill="#f9b499"/>
<path d="M339.41,186.37l0-4.28s10.54,7.68,26.19,3.62l0,3.16S349.35,197.44,339.41,186.37Z" fill="#f7aa92"/>
<ellipse cx="354.11" cy="152.65" rx="24.99" ry="37.2" fill="#f9b499"/>
<path d="M334,193.88s-20.61-6.92-15.91-37.07c0,0,4.43-45.13,31.22-49.16a40,40,0,0,1,21,7.8s18.73,19.8,14.3,41.36c0,0,8,27.38-14.71,34.65l-4.23-1.61,0-4.14a35.64,35.64,0,0,0,9.54-12.89s6.37-12.61,2.95-30a16.7,16.7,0,0,0-20-13.18c-10.35,2.28-22.69,9.1-25.72,28.23A97.27,97.27,0,0,0,334,193.88Z" fill="#2f2e41" data-secondary="true"/>
<path d="M467.08,314.31l7.59,111.59S486.49,583.65,491.33,601c0,0,7.52-4.2,17.73,2.25,0,0,5.91-119.76,0-141.81,0,0,16.28-96.21,13.69-122.16a2.6,2.6,0,0,1,1.68-2.7h0a2.61,2.61,0,0,1,3.33,1.44c6.55,15.79,44.53,108.17,56.4,156.7l30.2,108.53s5.91-7.53,17.19,0c0,0-2.81-102.24-24.21-143.28a41.88,41.88,0,0,1-4.69-19.76l.06-6.46a989.13,989.13,0,0,1-24.25-101s-7-40.16-27.72-56.77l-43.51,26.9S483.66,318.77,467.08,314.31Z" fill="#2f2e41" data-secondary="true"/>
<path d="M467.08,314.31l7.59,111.59S486.49,583.65,491.33,601c0,0,7.52-4.2,17.73,2.25,0,0,5.91-119.76,0-141.81,0,0,16.28-96.21,13.69-122.16a2.6,2.6,0,0,1,1.68-2.7h0a2.61,2.61,0,0,1,3.33,1.44c6.55,15.79,44.53,108.17,56.4,156.7l30.2,108.53s5.91-7.53,17.19,0c0,0-2.81-102.24-24.21-143.28a41.88,41.88,0,0,1-4.69-19.76l.06-6.46a989.13,989.13,0,0,1-24.25-101s-7-40.16-27.72-56.77l-43.51,26.9S483.66,318.77,467.08,314.31Z" fill="#2f2e41" data-secondary="true"/>
<path d="M467.08,314.31l7.59,111.59S486.49,583.65,491.33,601c0,0,7.52-4.2,17.73,2.25,0,0,5.91-119.76,0-141.81,0,0,16.28-96.21,13.69-122.16a2.6,2.6,0,0,1,1.68-2.7h0a2.61,2.61,0,0,1,3.33,1.44c6.55,15.79,44.53,108.17,56.4,156.7l30.2,108.53s5.91-7.53,17.19,0c0,0-2.81-102.24-24.21-143.28a41.88,41.88,0,0,1-4.69-19.76l.06-6.46a989.13,989.13,0,0,1-24.25-101s-7-40.16-27.72-56.77l-43.51,26.9S483.66,318.77,467.08,314.31Z" opacity="0.2"/>
<path d="M614.36,603.2l-3.17,16.18a2.53,2.53,0,0,0,2.49,3h23.87a2.53,2.53,0,0,0,2.23-3.72l-8.23-15.48S621,594.77,614.36,603.2Z" fill="#0071f2" data-primary="true"/>
<path d="M606.78,162.87s-.87,21.38,9.82,26.58c0,0-12.17,6.06-9.84,19.06,0,0,9.2,48.3,28.82,61.33a58.22,58.22,0,0,1,7.3,5.58c5.61,5.17,15,14.14,18.21,18.9,0,0-23.43,39.19-82.63,38.42,0,0-7.8-41.94-31.2-59.68,0,0-24.56-6.77-32.07-45.77l-8-32.77s2.53.57,6.63-1.58l46.77-20.62S572.55,163.13,606.78,162.87Z" fill="#0071f2" data-primary="true"/>
<path d="M641.48,358.21h0a4.78,4.78,0,0,1,3.27,1.29l65.74,61.73a22,22,0,0,0,7.46,4.6l73.7,26.94,8.6-13.44s-47.82-51-72.53-42.44c0,0-30.11-80.5-66.63-102.57,0,0-26.65,38.74-82.63,38.42,0,0,17.1,96.39,43.42,152.8L660,585.47s6.44,2.68,16.11-5.38c0,0-1.61-78.43-32.23-108l-7.19-108.82A4.77,4.77,0,0,1,641.48,358.21Z" fill="#2f2e41" data-secondary="true"/>
<path d="M830.62,460.55l-30.37-21.22-8.6,13.44,25,26.42a11.4,11.4,0,0,0,14.15,2.09c3.29-2,5.81-5.89,4.56-13.22A11.49,11.49,0,0,0,830.62,460.55Z" fill="#0071f2" data-primary="true"/>
<path d="M660,585.47,648.4,611a7.58,7.58,0,0,0,6.86,10.78h10.65a7.57,7.57,0,0,0,7.55-7l2.68-34.72S668.06,587.59,660,585.47Z" fill="#0071f2" data-primary="true"/>
<path d="M467.08,314.31s-50-96.2-90.39-126.33c0,0,9.93-6.16,6.85-17.46L380.46,151l6.51.36L451.3,135l55.93,59.54,8.28,34.32s4.68,33.74,31.75,44.22c0,0,2.3,1.8,3.48,2.91l-43.51,26.9S481.51,319.57,467.08,314.31Z" fill="#0071f2" data-primary="true"/>
<path d="M467.08,314.31s-50-96.2-90.39-126.33c0,0,9.93-6.16,6.85-17.46L380.46,151l6.51.36L451.3,135l55.93,59.54,8.28,34.32s4.68,33.74,31.75,44.22c0,0,2.3,1.8,3.48,2.91l-43.51,26.9S481.51,319.57,467.08,314.31Z" fill="#fff" opacity="0.07"/>
<path d="M481.27,617.17,491.33,601s7.74-4.3,17.73,2.25V619a3.42,3.42,0,0,1-3.43,3.42H484.18A3.43,3.43,0,0,1,481.27,617.17Z" fill="#0071f2" data-primary="true"/>
<polygon points="425.51 244.8 409.13 238.4 415.34 230.33 425.51 244.8" fill="#f9b499"/>
<path d="M372.51,605l-7.31,12.1a3.51,3.51,0,0,0-.51,1.81h0a3.48,3.48,0,0,0,3.49,3.48h19.7a3.48,3.48,0,0,0,3.49-3.48v-.41a3.53,3.53,0,0,0-.64-2l-7.18-10.14S380.32,601.78,372.51,605Z" fill="#0071f2" data-primary="true"/>
<path d="M344.73,537.4a200.42,200.42,0,0,0-1.94,22.11,21.15,21.15,0,0,0,4,12.85c1.65,2.21,3.8,4,6.27,3.82,0,0,6.19-.81,6.46-17.24,0,0,.37-19.47-3.59-27.79,0,0,.65,6.15-2.91,9.24a4.26,4.26,0,0,1-4.1.81A7.72,7.72,0,0,1,344.73,537.4Z" fill="#0071f2" data-primary="true"/>
<path d="M221,332.74s71.81,14.58,103.19-20.4c-1-4.11-1.55-8.41-3.13-12.43-5-19.27-10.65-37.64-16.65-55.11-1.44-3.68-2.79-7.75-4-12.17-2-7.22-4-16.71-4-25.78l6.05,8.87,6.51-5.63,1.46-9.16s5.32-18-2.61-31c0,0-8.72-14.08-19.2-16.37a157.52,157.52,0,0,0-36.53-1.47s6.58,16.11,0,25.51c0,0-9.94,15.32-32.1,11.42,0,0-9.67.4-9.4-15.85V159.71s-13.83,1.61-18,3.36-25.12,8.6-26.33,20.28c0,0,32.1,18.67,36.13,34.12,0,0,12.63,45.12,13.57,61.65C215.93,279.12,221.84,308.34,221,332.74Z" fill="#0071f2" data-primary="true"/>
<path d="M221,332.74s71.81,14.58,103.19-20.4c-1-4.11-1.55-8.41-3.13-12.43-5-19.27-10.65-37.64-16.65-55.11-1.44-3.68-2.79-7.75-4-12.17-2-7.22-4-16.71-4-25.78l6.05,8.87,6.51-5.63,1.46-9.16s5.32-18-2.61-31c0,0-8.72-14.08-19.2-16.37a157.52,157.52,0,0,0-36.53-1.47s6.58,16.11,0,25.51c0,0-9.94,15.32-32.1,11.42,0,0-9.67.4-9.4-15.85V159.71s-13.83,1.61-18,3.36-25.12,8.6-26.33,20.28c0,0,32.1,18.67,36.13,34.12,0,0,12.63,45.12,13.57,61.65C215.93,279.12,221.84,308.34,221,332.74Z" fill="#231f20" opacity="0.07"/>
<path d="M296.79,602.67l-4.86,13.54a4.42,4.42,0,0,0-.25,1.45v1.13a4.3,4.3,0,0,0,4.3,4.3h22.56a4.29,4.29,0,0,0,4.3-4.3v-.66a4.29,4.29,0,0,0-.92-2.66l-10.09-12.8S306.46,596,296.79,602.67Z" fill="#0071f2" data-primary="true"/>
<path d="M173.66,535.52s-27.57,29.79-19.25,40.68c0,0,6.18,13.58,15.05,6.33,0,0,12.62-12.9,16.11-37.34C185.57,545.19,173.56,547.61,173.66,535.52Z" fill="#0071f2" data-primary="true"/>
<path d="M116.47,189.66s4.81-3.15,14.1-4.56l.62-7.27a22.63,22.63,0,0,0,23.49,5.87l0,3.68a5.17,5.17,0,0,0,1.64,2.83c.2.17.42.35.64.55s.59.59.83.86a4.67,4.67,0,0,0,1.36.86,8.52,8.52,0,0,0,4.85.07,11.76,11.76,0,0,0,3.2,1.38s3.12,9.15.94,18.58a22.4,22.4,0,0,1-18.21,17c-6.21,1-14.2-.43-22.1-9.48C127.85,220.05,116.07,206.71,116.47,189.66Z" fill="#f9b499"/>
<path d="M80.83,225.66S45.74,235,38.32,234l12.3-27.15,21.83-5.46S74.71,219.67,80.83,225.66Z" fill="#f9b499"/>
<path d="M144,468.59l-18.36-71.08s-11.19-24.95-7.74-51.14c0,0,28.93,4.23,48.3-7.11,0,0,33.15-22.46,43-19,0,0,24.66,55.79,26.22,110.08,0,0,6.3,92.62,4.82,146.87a9.37,9.37,0,0,1-11.37,9c-.27-.07-.54-.14-.82-.23a9.29,9.29,0,0,1-6.31-7.27c-3.26-18-15.43-86.85-16.78-118.28,0,0-23.05-68.51-28.91-93l-2.39,2s9.32,89.05,0,105.06c0,0-48.33,63.36-63.94,94-3.84,7.54-15.21,5.46-16-3,0-.1,0-.19,0-.29a8.47,8.47,0,0,1,.33-3C97.36,551.17,120.86,475.83,144,468.59Z" fill="#2f2e41" data-secondary="true"/>
<path d="M94,562.16S65.53,591.49,73,603.86c0,0,8.59,13.72,18,2.5,0,0,10.79-13.13,15.94-34.64C106.85,571.72,93.27,577.62,94,562.16Z" fill="#0071f2" data-primary="true"/>
<path d="M200.54,156.81l6.39,9a5,5,0,0,1-.63,6.52,20.88,20.88,0,0,1-7.44,4.71,5,5,0,0,1-5.68-1.73l-2.05-2.76-4.31-11S194.65,155.54,200.54,156.81Z" fill="#f9b499"/>
<path d="M616.6,189.45s31.63-15.09,48.75-31.58c0,0,24.53-20,40.67-47.82a16.67,16.67,0,0,1,3.72-4.39l21.63-18.3a9.86,9.86,0,0,0,3.5-7.46c0-3.83-.89-8.92-5.25-11.42a9.73,9.73,0,0,0-12.82,3.25L704.27,90.49l-.34-8.56a3,3,0,0,0-4.16-2.56h0A3,3,0,0,0,698,82.05v17.3S669.89,118,656.12,133.5A95.44,95.44,0,0,1,617.71,160c-4.49,1.64-8.44,2.77-10.93,2.86C606.78,162.87,602.61,183.54,616.6,189.45Z" fill="#f9b499"/>
<path d="M560.9,217.81S584.54,201,560.63,171l-29.28,5.23-17.49,15.89s3.77,26.73,22.28,32.29a22.84,22.84,0,0,0,17.23-1.95A71.56,71.56,0,0,0,560.9,217.81Z" fill="#f9b499"/>
<path d="M518.16,187.92S525.82,199,537.1,193c0,0,11.76-4.65,13.64-20.2Z" fill="#f7aa92"/>
<ellipse cx="520.52" cy="154.64" rx="28.67" ry="37.86" transform="translate(-22.2 172.05) rotate(-18.38)" fill="#f9b499"/>
<path d="M552.93,177.09a3.64,3.64,0,0,1,1.25-.59,2.46,2.46,0,0,0,1.89-2.35h0a1.83,1.83,0,0,1,1.83-1.83h2.73l4.3-2.42v-5.1l1.2-1.2a4.67,4.67,0,0,0,1.36-3.24c0-2.08.71-5.42,4.56-6.59a5.13,5.13,0,0,0,3.27-2.76,11.79,11.79,0,0,0,1.16-6.63h0a3.12,3.12,0,0,0-.33-4.48l-.74-.62a5.5,5.5,0,0,1,1.3-5.5,3.34,3.34,0,0,0,.22-4.11l-1.79-2.48s-.81-1.88,1.61-3.49c0,0,2.42-3.76-2.15-8.6l.93-2.3a3.28,3.28,0,0,0-1.86-4.27l-1.75-.68s1.34-7.25-5.11-10.47c0,0-1.34-3-6.71-3l-4.3-4s3-7.52-4-3.76l-.4-.95a4.28,4.28,0,0,0-5.46-2.31,7.78,7.78,0,0,1-3.81.57s-.54-3.49-7.52-4.83c0,0-3-7.52-9.4-1.34a8.65,8.65,0,0,0-12.09,0l-5-.2a4.67,4.67,0,0,0-3.11,1l-4,3.21-2.38-2.24a1.74,1.74,0,0,0-2.82.67l-1,2.64-.47-.13a4.11,4.11,0,0,0-4.82,2.12l-.35.7-5-.2a5.28,5.28,0,0,0-3.75,1.37c-1.63,1.49-3.78,3.89-3.62,6.08l-1.54-.46a3,3,0,0,0-3.83,2.85v1.91l-1.51-.32a3,3,0,0,0-3.59,2.91v.9h0a3.27,3.27,0,0,0-3.46,3.52c.1,1.5,0,3-.56,3.73,0,0-8.87-.8-8.33,4l0,8.34a9.66,9.66,0,0,1-.52,3.11l-2.15,6.28-1.44.53a2.15,2.15,0,0,0-.29,3.9l1.73.94L448,137.12a2.13,2.13,0,0,0-.17,3.49l1.38,1.09s-.81,11.31,1.61,11.7l-.76,1.21a3.55,3.55,0,0,0,.43,4.29,7.14,7.14,0,0,1,1.79,6.12,2.63,2.63,0,0,0,1.33,2.69,15,15,0,0,0,5,1.93s1.88,7.79,7.52,9.13l.41,1.53a3.36,3.36,0,0,0,3.25,2.5h.37l.68,1.44a3,3,0,0,0,3.95,1.5,5.21,5.21,0,0,1,5,0s1.88,6.45,5.1,6.18c0,0,6.71-1.27,10.15.07a3.78,3.78,0,0,0,3.84-.56l1.32-1.12s6.45,8.86,15.85,1.07l1.62,1.86a2.86,2.86,0,0,0,4.29,0h0s4-.42,4.28-4.24c0,0-13.68-.86-20.66-9.72l-2.82-2.69-.18-1.2a3.38,3.38,0,0,0-2.78-2.83h0l-1.74-3.49-2.15-3.23.33-1.51a5,5,0,0,0-1.47-4.73l-.07-.07.13-6.16-2.55-1.09.94-1.88s-1.48-9,1.61-9l4.43-4.57s6.85.41,7.26.41c.11,0,.31-.25.55-.61a4.58,4.58,0,0,1,4-2.08c2.46.11,6.51-.68,11.31-5.42a4.19,4.19,0,0,1,4-1l1.61.43,2.35-.65a4.13,4.13,0,0,1,4.58,1.76,30.24,30.24,0,0,0,4.82,6.12,3.73,3.73,0,0,1,1.18,3.69l-.17.76s5.08,1.07,4.53,10.75a4,4,0,0,0,1.32,3.28,3.19,3.19,0,0,1,.89,3.85,3.82,3.82,0,0,0,.73,4h0a.11.11,0,0,1,0,.12l-1.18,2.62-.54,6.08a5,5,0,0,0,1.37,3.86l1.93,2A2.38,2.38,0,0,0,552.93,177.09Z" fill="#2f2e41" data-secondary="true"/>
<path d="M578.29,190.48a29.55,29.55,0,0,0,9.1-3.5,7.47,7.47,0,0,0,3.84-7.21l-.81-9.42A5.85,5.85,0,0,0,584.6,165a27.25,27.25,0,0,0-11.15,2.09,7.7,7.7,0,0,0-4.36,8.8l2.32,9.88A6.14,6.14,0,0,0,578.29,190.48Z" fill="#f9b499"/>
<path d="M569,172.81l.48-4.65a76.2,76.2,0,0,1,8.62-2.52,77.23,77.23,0,0,1,10.9-1.71l.27,3.42A43.73,43.73,0,0,1,569,172.81Z" fill="#f7aa92"/>
<path d="M387,151.37s6,20.55,14.91,26.79c0,0,7.25,5.24,17.12-.8,0,0,5.34-2.88,11-6.39a33.61,33.61,0,0,0,15.15-20.83c.1-.45.2-.92.28-1.39L447.21,136l-4.23.74-23.37,24.47-26.8-9.47L391.73,150Z" fill="#0071f2" data-primary="true"/>
<path d="M423,135.48l4.24,2.59,15.72-1.3a33.71,33.71,0,0,1-14.23,30c-.6.43-1.19.85-1.76,1.32-2.16,1.8-9.23,7.24-16.24,7.76a11.63,11.63,0,0,1-9.94-4.57c-2.95-3.79-8.4-11.67-9.08-18.85v-6.47Z" fill="#f9b499"/>
<path d="M417.46,143.6l-29.08,5.85a32.6,32.6,0,0,0,3.35,3,28.2,28.2,0,0,0,1.78,6.71s25,2,32.18-15.51a45.47,45.47,0,0,0,1.57-5.53L423,135.48Z" fill="#f7aa92"/>
<ellipse cx="400.28" cy="115.45" rx="24.79" ry="40.91" transform="translate(-8.45 34.87) rotate(-4.94)" fill="#f9b499"/>
<path d="M369.89,103.61s-10.69-.21-9.62-4.49c0,0,1.5-7.69,8.12-9.61,0,0-6-9,0-11.76,0,0,5.13-2.56,8.76,0,0,0-3.42-15.6,7.7-16,0,0,8.12.21,12.39,5.55,0,0,2.57-7.48,10.47-3,0,0,6.63,4.84,9,11,0,0,6-3.92,10,1.43a14.13,14.13,0,0,1,1.07,14.1l1.38,19-4,6.82s-1.25-17.07-5.83-24.6c0,0-4.16,0-7.79-4.66,0,0-9,8.33-18.17,0,0,0-1.92,11.54-12.18,8.55,0,0-2.35,6.11-5.13,6,0,0-1.18,10-.34,17.28C375.74,119.25,371.38,117.72,369.89,103.61Z" fill="#2f2e41" data-secondary="true"/>
<ellipse cx="429.08" cy="116.86" rx="9.88" ry="4.89" transform="matrix(0.16, -0.99, 0.99, 0.16, 245.13, 521.74)" fill="#f9b499"/>
<ellipse cx="372.63" cy="121.96" rx="4.89" ry="9.88" transform="translate(-19.09 105.25) rotate(-15.68)" fill="#f9b499"/>
<g opacity="0.2">
<polygon points="352.16 378.81 351.69 378.81 351.58 343.7 352.16 343.7 352.16 378.81"/>
</g>
<ellipse cx="221.76" cy="131.59" rx="25.36" ry="35.98" transform="translate(-15.93 31.6) rotate(-7.87)" fill="#f9b499"/>
<ellipse cx="250.14" cy="131.67" rx="4.91" ry="10.18" fill="#f9b499"/>
<ellipse cx="196.62" cy="138.59" rx="4.91" ry="10.18" transform="translate(-39.2 91.1) rotate(-23.79)" fill="#f9b499"/>
<path d="M193.14,129.11c-1.09-.89-.51-3.45-.51-3.45s-2.09-.9-1.55-4.17c0,0-3.89-2.34-1.74-5.3,0,0-3.5-1.2-1.89-3.35,0,0-2.95-7.26,3.9-10.48,0,0-2.42-2.55.27-4,0,0-1.08-2.82,2.55-2.42,0,0,1.48-4.3,3.36-4.7,0,0-1.34-3.49,3.36-2.55,0,0,2-3.63,5.77-2.42,0,0,2-3.22,4.43-1.61,0,0,.54-3.09,4-1.34,0,0,6.72-3.49,9.94.53,0,0,2.29-2.82,3.36-.4,0,0,2.35-1.34,4.06,1.88,0,0,.51,2.55,3.46.94,0,0,5.78-1.21,8.46,6.58,0,0,3.5-1.07,2.15,2.69,0,0,3.9-.13,2.15,3.22,0,0,4.3,3.76,3,7.93,0,0,2.41,3.22-.54,5,0,0,1.66,5.1-1,6.85,0,0-.5,7.25-3.45,8.39,0,0-2.42-10.61-7.06-17.6a11.44,11.44,0,0,0-14.51-3.86l-.17.09A18.69,18.69,0,0,1,211.59,107h0a6.14,6.14,0,0,0-2.33-.23c-2.93.31-9.8,1.84-10.65,9.32l-1,15.15A6.5,6.5,0,0,0,193.14,129.11Z" fill="#2f2e41" data-secondary="true"/>
<path d="M131.74,175.06l-.93,7.28s8.6,7.8,23.89,5v-5.86Z" fill="#f7aa92"/>
<ellipse cx="148.2" cy="150" rx="35.1" ry="26.59" transform="translate(-10.92 288.35) rotate(-86.35)" fill="#f9b499"/>
<path d="M96.12,163.14s-6-2.82,0-6.85A4.65,4.65,0,0,0,97,151.1a9.11,9.11,0,0,1-1.08-5,8.38,8.38,0,0,1,4-6.49s4.23-2.19,4.23-8.35c0,0-1.21-8.06,8.06-9.72,0,0,4.63-3.28,4.43-6.5,0,0,0-7.66,11.69-7.46,0,0,3.62-.4,5-3,0,0,4.84-6.25,10.28-1.81,0,0,4.63,5,8.26,1.61,0,0,3.22-5,8.66.6,0,0,2.42,3.88,5.64,1.64,0,0,7.67-2.71,9.17,6.32a3.71,3.71,0,0,0,1.32,2.37,3.85,3.85,0,0,0,2.62.74,5.55,5.55,0,0,1,4.09,1.35c1.29,1.18,2.25,3.2.94,6.52,0,0,.07,4,2.45,4.23,0,0,7.22,2.62,2.18,11.69,0,0-1.27,3,.72,4a5.21,5.21,0,0,1,2.19,1.71c1.51,2.25,3.59,6.6-.29,9.62a5.46,5.46,0,0,0,.2,7s5.44,6.24-2,11.48c0,0-2.22,1.61-1.82,5.85,0,0,2.82,7-6,8.46,0,0-5.24-1.21-7.25,2.82,0,0-2.76,6.57-10.68,1.81l-2.37.4a4.25,4.25,0,0,1-3.87-1.37,10.9,10.9,0,0,0-1.44-1.37,4.47,4.47,0,0,1-1.71-3.72l.05-2.79s7.59-2.62,14.78-13.58c0,0-4.64-2.55,1.61-12.83,0,0,2.82-4.83-1.61-8.06,0,0-1.82-5.59-.8-9.44a7.06,7.06,0,0,0-2.57-7.79c-.21-.14-.43-.28-.66-.41,0,0-6.05-2.9-8.67-11.77,0,0-1.81-3.22-4.83.2,0,0-.4,9.67-9.87,9.67,0,0-3.9,2.37-3.77,6a7.71,7.71,0,0,1-.45,3.16,12.8,12.8,0,0,1-6.31,6.56,7,7,0,0,0-3.74,4.91,4.59,4.59,0,0,0,.37,2.94s2.55,3.51-2.27,8.49a4.79,4.79,0,0,0-1,5.06c1.27,3.3,3.55,8.37,6.34,11l-.62,7.27-7.85,1.61-3-1.61s-2.61,3.82-5.44,0c0,0-3.42-5.85-6.24-4.44,0,0-5.24,2.82-5.64-1.81l.46-2.61a10.56,10.56,0,0,0-2.9-9.26Z" fill="#2f2e41" data-secondary="true"/>
<path d="M115.4,172.17l7.91-3a1.67,1.67,0,0,0,.93-2.28h0a1.67,1.67,0,0,0-2-.87l-9.2,3.07a.92.92,0,0,1-1.07-.36h0a.93.93,0,0,1,.07-1.12l16.52-19.52a1.32,1.32,0,0,0-.24-1.94h0a1.32,1.32,0,0,0-1.71.14l-16.39,16.39c-1.56-6.25-5.47-5.66-5.47-5.66C95,159.6,91,171.7,91,171.7c-34,19.43-51.71,36.72-57.92,43.47a13.45,13.45,0,0,0-3.61,10.42c.35,3.5,2.23,7.12,8.15,8.06A17.81,17.81,0,0,0,51,230.2a72,72,0,0,0,9.92-9.09,62.35,62.35,0,0,0,4.05-4.83c4.88-6.43,21.27-27.45,32-34,0,0,10.39.34,15.68-7.77A5.75,5.75,0,0,1,115.4,172.17Z" fill="#f7aa92"/>
</svg>