 <!DOCTYPE svg PUBLIC "-//W3C//DTD SVG 1.1//EN" "http://www.w3.org/Graphics/SVG/1.1/DTD/svg11.dtd">
<svg id="b048300c-94de-41e9-893a-8b97ff6e70a7" data-name="Layer 1" xmlns="http://www.w3.org/2000/svg" width="865.76" height="682.89" viewBox="0 0 865.76 682.89">
<defs>
<style xmlns="http://www.w3.org/1999/xhtml">*, ::after, ::before { box-sizing: border-box; }
img, svg { vertical-align: middle; }
</style>
<style xmlns="http://www.w3.org/1999/xhtml">*, body, html { -webkit-font-smoothing: antialiased; }
img, svg { max-width: 100%; }
</style>
</defs>
<path d="M552.38,645.8c24.91-7.79,47.26-15.74,74.14-30.84,27.74-15.58,150.92-89.69,166.94-218,6.67-53.42-7.65-97-10.21-104.48C778.3,278,768,248.83,742.11,220c-31.73-35.32-67.94-49-89.17-56.75C608.27,147,570.8,147.81,553,148.4c-19.25.62-53.24,2-91.87,18.91-25.2,11-40.87,23.56-63.95,42.33-36.58,29.75-41.39,42.14-105.37,103.58-17.57,16.86-32,30.15-54.06,43.24-15.28,9.07-27.63,14.15-50.43,23.41-56,22.76-72,27.37-90.31,40.19-35.66,24.94-33.35,52.14-34.88,58A115.29,115.29,0,0,0,59.37,524c4.68,30.77,21.25,50.88,31.54,63a173.17,173.17,0,0,0,50.43,40.53,321.39,321.39,0,0,0,41.33,18.23Z" fill="#0071f2" data-primary="true"/>
<g opacity="0.7">
<path d="M552.38,645.8c24.91-7.79,47.26-15.74,74.14-30.84,27.74-15.58,150.92-89.69,166.94-218,6.67-53.42-7.65-97-10.21-104.48C778.3,278,768,248.83,742.11,220c-31.73-35.32-67.94-49-89.17-56.75C608.27,147,570.8,147.81,553,148.4c-19.25.62-53.24,2-91.87,18.91-25.2,11-40.87,23.56-63.95,42.33-36.58,29.75-41.39,42.14-105.37,103.58-17.57,16.86-32,30.15-54.06,43.24-15.28,9.07-27.63,14.15-50.43,23.41-56,22.76-72,27.37-90.31,40.19-35.66,24.94-33.35,52.14-34.88,58A115.29,115.29,0,0,0,59.37,524c4.68,30.77,21.25,50.88,31.54,63a173.17,173.17,0,0,0,50.43,40.53,321.39,321.39,0,0,0,41.33,18.23Z" fill="#fff"/>
</g>
<path d="M631.46,624.05l-.75-1.33C667.35,602.13,788.14,525,804.2,396.25c6.57-52.59-6.45-96.34-10.59-108.49C789,274.38,778.35,243,750.92,212.5c-33.6-37.39-72-51.38-92.58-58.9-47.35-17.27-87-16-103.85-15.43-19,.62-54.49,1.77-95.41,19.64l-.61-1.41c41.18-18,78.19-19.19,96-19.76,17-.56,56.8-1.85,104.43,15.52,20.73,7.57,59.33,21.64,93.19,59.32,27.64,30.76,38.4,62.31,43,75.79,4.17,12.23,17.27,56.25,10.67,109.17C789.57,525.87,668.26,603.38,631.46,624.05Z" fill="#0071f2" data-primary="true"/>
<path d="M631.46,624.05l-.75-1.33C667.35,602.13,788.14,525,804.2,396.25c6.57-52.59-6.45-96.34-10.59-108.49C789,274.38,778.35,243,750.92,212.5c-33.6-37.39-72-51.38-92.58-58.9-47.35-17.27-87-16-103.85-15.43-19,.62-54.49,1.77-95.41,19.64l-.61-1.41c41.18-18,78.19-19.19,96-19.76,17-.56,56.8-1.85,104.43,15.52,20.73,7.57,59.33,21.64,93.19,59.32,27.64,30.76,38.4,62.31,43,75.79,4.17,12.23,17.27,56.25,10.67,109.17C789.57,525.87,668.26,603.38,631.46,624.05Z" fill="#fff"/>
<g id="bb1fac8a-c3a7-459c-8dda-0de16e72b64c" data-name="freepik--background-complete--inject-4">
<path d="M209.68,168.86c.31,0,.55,15,.55,33.56S210,236,209.68,236s-.57-15-.57-33.57S209.36,168.86,209.68,168.86Z" fill="#e0e0e0"/>
<path d="M218.43,176.23c.31,0,.55,11.47.55,25.62s-.24,25.62-.55,25.62-.57-11.45-.57-25.62S218.1,176.23,218.43,176.23Z" fill="#e0e0e0"/>
<path d="M228.29,183.55c.3,0,.57,8.31.57,18.56s-.27,18.55-.57,18.55-.57-8.3-.57-18.55S228,183.55,228.29,183.55Z" fill="#e0e0e0"/>
<path d="M236.86,189.87c.31,0,.56,4.63.56,10.35s-.25,10.35-.56,10.35-.56-4.64-.56-10.35S236.54,189.87,236.86,189.87Z" fill="#e0e0e0"/>
<path d="M244.43,194.91c.31,0,.56,2.54.56,5.69s-.25,5.68-.56,5.68-.56-2.55-.56-5.68S244.11,194.91,244.43,194.91Z" fill="#e0e0e0"/>
<path d="M253,188.85c.32,0,.57,4.64.57,10.35s-.25,10.35-.57,10.35-.55-4.63-.55-10.35S252.7,188.85,253,188.85Z" fill="#e0e0e0"/>
<path d="M261.09,180.52c.32,0,.57,8.74.57,19.44s-.25,19.45-.57,19.45-.55-8.74-.55-19.45S260.78,180.52,261.09,180.52Z" fill="#e0e0e0"/>
<path d="M158.64,183.55c.32,0,.56,8.31.56,18.56s-.24,18.55-.56,18.55-.56-8.3-.56-18.55S158.4,183.55,158.64,183.55Z" fill="#e0e0e0"/>
<path d="M167.23,189.87c.3,0,.56,4.63.56,10.35s-.26,10.35-.56,10.35-.57-4.64-.57-10.35S166.92,189.87,167.23,189.87Z" fill="#e0e0e0"/>
<path d="M174.8,194.91c.32,0,.56,2.54.56,5.69s-.24,5.68-.56,5.68-.56-2.55-.56-5.68S174.49,194.91,174.8,194.91Z" fill="#e0e0e0"/>
<path d="M183.39,185.82c.3,0,.56,6,.56,13.38s-.26,13.38-.56,13.38-.57-6-.57-13.38S183.15,185.82,183.39,185.82Z" fill="#e0e0e0"/>
<path d="M191.47,180.52c.3,0,.55,8.74.55,19.44s-.25,19.45-.55,19.45-.57-8.74-.57-19.45S191.15,180.52,191.47,180.52Z" fill="#e0e0e0"/>
<path d="M201.31,176.49c.3,0,.57,11.06.57,24.75s-.27,24.75-.57,24.75-.55-11.07-.55-24.75S201,176.49,201.31,176.49Z" fill="#e0e0e0"/>
<path d="M149.46,209.55c-.3,0-.55-4.63-.55-10.35s.25-10.35.55-10.35.57,4.64.57,10.35S149.77,209.55,149.46,209.55Z" fill="#e0e0e0"/>
<path d="M141.89,204.56c-.3,0-.57-2.54-.57-5.68s.27-5.68.57-5.68.57,2.55.57,5.68S142.2,204.56,141.89,204.56Z" fill="#e0e0e0"/>
<path d="M269.05,188.85c.32,0,.57,4.64.57,10.35s-.25,10.35-.57,10.35-.55-4.63-.55-10.35S268.69,188.85,269.05,188.85Z" fill="#e0e0e0"/>
<path d="M276.58,193.9c.31,0,.55,2.55.55,5.68s-.24,5.68-.55,5.68-.57-2.54-.57-5.68S276.33,193.9,276.58,193.9Z" fill="#e0e0e0"/>
<path d="M679.12,218.68c.48,0,.86,22.73.86,50.74s-.38,50.75-.86,50.75-.84-22.71-.84-50.75S678.66,218.68,679.12,218.68Z" fill="#e0e0e0"/>
<path d="M692.36,229.83c.46,0,.84,17.34.84,38.75s-.38,38.74-.84,38.74-.86-17.34-.86-38.74S691.88,229.83,692.36,229.83Z" fill="#e0e0e0"/>
<path d="M707.29,241c.47,0,.86,12.56.86,28s-.39,28.06-.86,28.06-.84-12.57-.84-28.06S706.77,241,707.29,241Z" fill="#e0e0e0"/>
<path d="M720.21,250.45c.48,0,.86,7,.86,15.64s-.38,15.63-.86,15.63-.85-7-.85-15.65S719.74,250.45,720.21,250.45Z" fill="#e0e0e0"/>
<path d="M731.67,258.08c.46,0,.84,3.84.84,8.59s-.38,8.59-.84,8.59-.85-3.84-.85-8.59S731.2,258.08,731.67,258.08Z" fill="#e0e0e0"/>
<path d="M744.64,248.92c.48,0,.86,7,.86,15.64s-.35,15.71-.86,15.71-.85-7-.85-15.65S744.17,248.92,744.64,248.92Z" fill="#e0e0e0"/>
<path d="M756.8,236.33c.48,0,.86,13.1.86,29.38s-.38,29.39-.86,29.39S756,282,756,265.71,756.39,236.33,756.8,236.33Z" fill="#e0e0e0"/>
<path d="M602,241c.47,0,.85,12.56.85,28s-.38,28.06-.85,28.06-.84-12.57-.84-28.06S601.5,241,602,241Z" fill="#e0e0e0"/>
<path d="M614.94,250.45c.48,0,.86,7,.86,15.64s-.38,15.63-.86,15.63-.84-7-.84-15.65S614.48,250.45,614.94,250.45Z" fill="#e0e0e0"/>
<path d="M626.4,258.08c.47,0,.85,3.84.85,8.59s-.38,8.59-.85,8.59-.84-3.84-.84-8.59S625.94,258.08,626.4,258.08Z" fill="#e0e0e0"/>
<path d="M639.37,244.33c.48,0,.86,9.06.86,20.23s-.38,20.24-.86,20.24-.84-9.06-.84-20.24S638.86,244.33,639.37,244.33Z" fill="#e0e0e0"/>
<path d="M651.59,236.33c.47,0,.86,13.1.86,29.38s-.39,29.39-.86,29.39-.84-13.1-.84-29.39S651.12,236.33,651.59,236.33Z" fill="#e0e0e0"/>
<path d="M666.53,230.21c.46,0,.84,16.75.84,37.41S667,305,666.53,305s-.86-16.75-.86-37.4S666,230.21,666.53,230.21Z" fill="#e0e0e0"/>
<path d="M588.1,280.27c-.47,0-.85-7-.85-15.64s.38-15.65.85-15.65.85,7,.85,15.65S588.56,280.27,588.1,280.27Z" fill="#e0e0e0"/>
<path d="M576.65,272.58c-.48,0-.86-3.84-.86-8.59s.38-8.59.86-8.59.85,3.84.85,8.59S577.12,272.58,576.65,272.58Z" fill="#e0e0e0"/>
<path d="M768.81,248.92c.48,0,.86,7,.86,15.64s-.38,15.65-.86,15.65-.85-7-.85-15.65S768.34,248.92,768.81,248.92Z" fill="#e0e0e0"/>
<path d="M780.27,256.55c.46,0,.84,3.84.84,8.59s-.38,8.59-.84,8.59-.86-3.84-.86-8.59S779.8,256.55,780.27,256.55Z" fill="#e0e0e0"/>
<path d="M708.2,129.34h0a23.57,23.57,0,0,1-23.56-23.55V78.12A23.56,23.56,0,0,1,708.2,54.6h0a23.55,23.55,0,0,1,23.55,23.49v27.67a23.54,23.54,0,0,1-23.52,23.58Z" fill="#ebebeb"/>
<path d="M708.21,143.68a34.8,34.8,0,0,1-34.78-34.78h3.36a31.45,31.45,0,0,0,31.41,31.42c18.5,0,31.42-12.94,31.42-31.42H743C743,129.36,728.68,143.67,708.21,143.68Z" fill="#ebebeb"/>
<rect x="706.52" y="141.98" width="3.36" height="17.03" fill="#ebebeb"/>
<rect x="687.64" y="156.58" width="41.13" height="3.36" fill="#ebebeb"/>
<path d="M673.47,70A19.14,19.14,0,0,1,667.4,68c-5-2.14-6.7-3.23-6.11-5l.23-.7.79-.41c1.76-.78,6.21,1,7.09,1.46s5.28,2.32,5.92,4.12l.25.7-.34.8h0A1.8,1.8,0,0,1,673.47,70Z" fill="#ebebeb"/>
<path d="M686.91,52.32c-1.06,0-2.69-1.19-6.09-5.82-4-5.46-3.81-6.78-3.74-7.28l.11-.68,1.19-.94h.8c.44.08,1.76.27,5.82,5.73,4.69,6.37,4.15,7.58,3,8.41h0A1.78,1.78,0,0,1,686.91,52.32Z" fill="#ebebeb"/>
<path d="M707.67,46l-.64-.56c-.32-.3-1.28-1.22-1.21-7.64s1.07-7.28,1.39-7.63l.54-.49h.84c1,.08,2.45.19,2.36,8.15s-1.46,8-2.53,8.11Z" fill="#ebebeb"/>
<path d="M728.35,50.52l-.7-.55c-1.46-1.37-.16-3.29,2.75-7.17s4.37-5.68,6.13-4.64l.65.38.22.88c.41,2-2.56,6-2.91,6.45s-3.36,4.37-5.39,4.59Z" fill="#ebebeb"/>
<path d="M743.59,69.69a1.66,1.66,0,0,1-1.62-.94c-.9-1.59.85-2.91,1.68-3.6a35.88,35.88,0,0,1,3.83-2.49c6.24-3.55,7.39-2.75,8-1.63.91,1.59-.83,2.91-1.67,3.58A31.55,31.55,0,0,1,750,67.12C746.6,69.05,744.71,69.69,743.59,69.69Z" fill="#ebebeb"/>
<path d="M215.07,515.42c6.78-3.51,14.76-4,22.3-2.71,4,.65,8.26,1.88,11,4.91s3.28,8.38.12,11a10.51,10.51,0,0,1-6.95,1.76c-5.82-.07-12.43-1.1-17.15,2.44-2.68,2-4.47,5.4-7.69,6.39a7.61,7.61,0,0,1-8.35-3.72,13.1,13.1,0,0,1-1-9.58A14.64,14.64,0,0,1,215.07,515.42Z" fill="#ebebeb"/>
<path d="M199.52,485.41c4.15,5.93,12.21,4,16,.35s5.32-8.85,6.76-13.86c3.29-11.42,6.59-23.4,4.15-35a19.46,19.46,0,0,0-4.53-9.55,10.19,10.19,0,0,0-9.64-3.21c-4.06,1.08-6.58,5.06-8.41,8.84a83.65,83.65,0,0,0-8.26,35.85c0,5.82.67,11.82,3.92,16.58" fill="#ebebeb"/>
<path d="M188.13,493.91c4.5-5.34,5.36-13.1,3.35-19.84s-6.52-12.39-11.75-17a63.28,63.28,0,0,0-21-12.42,22.66,22.66,0,0,0-9.46-1.6,9.89,9.89,0,0,0-7.93,4.81c-2.22,4.22-.09,9.34,2.21,13.52a159.17,159.17,0,0,0,13.81,21c4.14,5.34,8.89,10.62,15.21,13s12.87,2.14,16.2-2.24" fill="#ebebeb"/>
<path d="M199.24,574.78a11.72,11.72,0,0,0,.38-2.7c.19-2,.42-4.37.71-7.28.37-3.61.93-7.21,1.66-10.77a82.13,82.13,0,0,1,3.92-12.73,46.45,46.45,0,0,1,6.49-11.5,24.3,24.3,0,0,1,8.21-6.83,23.39,23.39,0,0,1,6.92-2.15,13.43,13.43,0,0,0,2.68-.39,12.55,12.55,0,0,0-2.74,0,21.15,21.15,0,0,0-7.28,1.87,24.52,24.52,0,0,0-8.66,6.89,45.89,45.89,0,0,0-6.65,11.69A77.9,77.9,0,0,0,201,553.81a93.27,93.27,0,0,0-1.46,10.92c-.23,3.12-.32,5.65-.36,7.4A13.82,13.82,0,0,0,199.24,574.78Z" fill="#e0e0e0"/>
<path d="M199.75,569.13a5.31,5.31,0,0,0,0-1.26v-3.56c0-3.1,0-7.59.16-13.11.28-11.08,1.24-23,3.07-39.8,1.75-15.81,4.09-34.2,6.57-46.17.52-2.72,1.06-5.17,1.56-7.28s.89-4,1.28-5.5.61-2.57.84-3.47a5.76,5.76,0,0,0,.22-1.24,4.86,4.86,0,0,0-.44,1.17c-.27.9-.62,2-1,3.44s-.93,3.31-1.45,5.46-1.15,4.57-1.74,7.27a408.15,408.15,0,0,0-6.9,42.84c-1.85,16.84-2.68,32.18-2.75,43.28,0,5.57,0,10.06.2,13.11.09,1.45.16,2.62.22,3.56A4.86,4.86,0,0,0,199.75,569.13Z" fill="#e0e0e0"/>
<path d="M199.82,539.54a23.23,23.23,0,0,0,0-3.73c-.13-2.4-.46-5.82-1.13-10.11A134.3,134.3,0,0,0,195.4,511a121.9,121.9,0,0,0-6.16-17.47,93.15,93.15,0,0,0-18.08-28.18,46.78,46.78,0,0,0-4.27-3.94c-.65-.56-1.22-1.11-1.82-1.55l-1.64-1.13a20,20,0,0,0-3.15-2c-.17.23,4.46,2.91,10.31,9.17a98.42,98.42,0,0,1,17.63,28.07,138.67,138.67,0,0,1,6.19,17.27c1.61,5.42,2.69,10.39,3.51,14.56s1.21,7.63,1.45,10A26.39,26.39,0,0,0,199.82,539.54Z" fill="#e0e0e0"/>
<polygon points="171.23 591.72 174.2 632.34 226.37 632.34 229.34 591.72 171.23 591.72" fill="#e0e0e0"/>
<rect x="166.19" y="575.72" width="69.36" height="16" fill="#e0e0e0"/>
<polygon points="166.19 630.79 166.19 635.23 169.45 635.23 234.42 635.23 234.42 630.79 166.19 630.79" fill="#ebebeb"/>
<polygon points="172.64 643.03 169.45 635.23 231.93 635.23 228.2 643.03 172.64 643.03" fill="#e0e0e0"/>
<path d="M228.36,604.94s0,.13-.25.38l-.77,1-3,3.88-.13.18-.13-.19L216.64,600h.44l-7.28,10.41-.44.4-.26-.31-8.74-10.37h.51l-.48.62-7.8,9.77-.25.32-.25-.34c-2.65-3.74-5.12-7.28-7.28-10.41h.43l-9.06,10.31-.16.19-.12-.21L173,605.58l-.73-1.28a1.71,1.71,0,0,1-.22-.45,2,2,0,0,1,.3.41l.81,1.22,2.91,4.68h-.19l8.91-10.46.22-.26.21.29,7.42,10.35h-.45L200,600.3l.48-.6.24-.32.25.31,8.74,10.39h-.5l7.43-10.35.21-.3.22.3,7.28,10.44H224l3.17-3.79.84-1C228.29,605.1,228.29,604.94,228.36,604.94Z" fill="#f5f5f5"/>
<path d="M230.06,591.46c0,.18-13.1.32-29.2.32s-29.12-.14-29.12-.32,13.1-.32,29.12-.32S230.06,591.29,230.06,591.46Z" fill="#f5f5f5"/>
<path d="M232.66,635.66c0,.18-14.21.32-31.74.32s-31.73-.14-31.73-.32,14.2-.32,31.73-.32S232.66,635.52,232.66,635.66Z" fill="#f5f5f5"/>
</g>
<g id="f944a446-c372-40d1-ad70-31931328e5e6" data-name="freepik--Device--inject-4">
<path d="M588.15,653.27H406.25c-22-.11-40.55-18.84-40.47-40.82l2-458.12a39.8,39.8,0,0,1,40-39.57l182.72.78a39.8,39.8,0,0,1,39.63,40l-1.94,458.11a39.8,39.8,0,0,1-39.94,39.64Z" fill="#2f2e41" data-secondary="true"/>
<path d="M588.15,653.27H406.25c-22-.11-40.55-18.84-40.47-40.82l2-458.12a39.8,39.8,0,0,1,40-39.57l182.72.78a39.8,39.8,0,0,1,39.63,40l-1.94,458.11a39.8,39.8,0,0,1-39.94,39.64Z" opacity="0.3"/>
<path d="M590.19,134.78l-35.43-.16a8.8,8.8,0,0,0-8.64,8.88v6.43a8.81,8.81,0,0,1-8.64,8.89l-69.06-.32a8.81,8.81,0,0,1-8.57-9v-6.42a8.89,8.89,0,0,0-8.57-9H438.81l-31-.14a27.93,27.93,0,0,0-28,27.87h0l-1.89,447.15a27.93,27.93,0,0,0,27.75,28l182.37.84a27.93,27.93,0,0,0,28-27.83l1.9-447.16A27.94,27.94,0,0,0,590.19,134.78Z" fill="#e0e0e0"/>
<path d="M590.19,134.78l-35.43-.16a8.8,8.8,0,0,0-8.64,8.88v6.43a8.81,8.81,0,0,1-8.64,8.89l-69.06-.32a8.81,8.81,0,0,1-8.57-9v-6.42a8.89,8.89,0,0,0-8.57-9H438.81l-31-.14a27.93,27.93,0,0,0-28,27.87h0l-.24,57.48H617.69l.25-56.4A27.94,27.94,0,0,0,590.19,134.78Z" fill="#0071f2" data-primary="true"/>
<path d="M397.61,199.82a.67.67,0,0,1-.48-.21l-4.85-5.77a.65.65,0,0,1,0-.85l4.84-5a.64.64,0,0,1,.9,0,.63.63,0,0,1,0,.9l-4.38,4.59,4.48,5.3a.65.65,0,0,1-.09.9A.6.6,0,0,1,397.61,199.82Z" fill="#fff"/>
<path d="M404,194.17H393a.64.64,0,0,1-.64-.63.64.64,0,0,1,.64-.64h11a.64.64,0,0,1,.63.64A.63.63,0,0,1,404,194.17Z" fill="#fff"/>
<path d="M592.86,188.51a1.6,1.6,0,1,1-1.6-1.6,1.6,1.6,0,0,1,1.6,1.6Z" fill="#fff"/>
<path d="M592.86,193.84a1.6,1.6,0,1,1-1.6-1.6,1.6,1.6,0,0,1,1.6,1.6Z" fill="#fff"/>
<circle cx="591.26" cy="199.18" r="1.6" fill="#fff"/>
<rect x="379.08" y="219.18" width="237.56" height="234.29" fill="#fff"/>
<path d="M548.36,537.72V537a20.88,20.88,0,0,0-.1-2.25A46.47,46.47,0,0,0,545,520.29a45.45,45.45,0,0,0-3.27-6.64,47.83,47.83,0,0,0-12-13.37,45.33,45.33,0,0,0-9-5.37,45.91,45.91,0,0,0-10.83-3.41,47,47,0,0,0-12.13-.68,48.75,48.75,0,0,0-6.35.89,50.53,50.53,0,0,0-6.28,1.79,47.13,47.13,0,0,0-21.86,16.41,46.52,46.52,0,0,0-3.81,6.17c-.58,1.07-1.07,2.19-1.58,3.32a27.16,27.16,0,0,0-1.26,3.47,47,47,0,0,0-2.42,14.84,51.17,51.17,0,0,0,.61,7.62,46.49,46.49,0,0,0,1.79,7.27c.38,1.18.85,2.32,1.27,3.48a25.41,25.41,0,0,0,1.59,3.33,46.12,46.12,0,0,0,3.81,6.17A47.16,47.16,0,0,0,485.15,582a50.53,50.53,0,0,0,6.28,1.79,47.54,47.54,0,0,0,18.45.21,46.94,46.94,0,0,0,19.81-8.78,47.14,47.14,0,0,0,15.26-20,49.29,49.29,0,0,0,1.93-5.92,46.15,46.15,0,0,0,1.34-8.5c.09-1,.08-1.74.1-2.25v0c0,.51,0,1.27-.07,2.25a46.48,46.48,0,0,1-1.27,8.53,48,48,0,0,1-1.92,6,45.78,45.78,0,0,1-3.27,6.67,47.73,47.73,0,0,1-12,13.45,47.13,47.13,0,0,1-32.11,9.58,48.34,48.34,0,0,1-6.34-.88,52.91,52.91,0,0,1-6.35-1.8,46.63,46.63,0,0,1-25.83-22.73c-.58-1.08-1.09-2.21-1.6-3.35a27.43,27.43,0,0,1-1.26-3.49,47.27,47.27,0,0,1-1.81-7.33,51,51,0,0,1-.61-7.61,47.77,47.77,0,0,1,2.43-15c.37-1.18.85-2.33,1.27-3.49a26.88,26.88,0,0,1,1.58-3.35,47.48,47.48,0,0,1,25.89-22.74,54,54,0,0,1,6.35-1.8,48.25,48.25,0,0,1,6.35-.88,47.28,47.28,0,0,1,23.08,4.14,46.59,46.59,0,0,1,9,5.41,47.81,47.81,0,0,1,12,13.47,44.78,44.78,0,0,1,3.27,6.67,47.27,47.27,0,0,1,1.92,5.94,45.62,45.62,0,0,1,1.27,8.54c.09,1,0,1.74.08,2.25Z" fill="#0071f2" data-primary="true"/>
<path d="M542.38,536.71v-.66a17.45,17.45,0,0,0-.09-1.95,42.22,42.22,0,0,0-1.16-7.33,40.89,40.89,0,0,0-22.6-27,39.7,39.7,0,0,0-9.33-2.94,40.83,40.83,0,0,0-10.47-.57,39.85,39.85,0,0,0-5.43.76,44.11,44.11,0,0,0-5.42,1.55A40.44,40.44,0,0,0,469,512.71a38.47,38.47,0,0,0-3.32,5.32,37.69,37.69,0,0,0-2.54,5.87,40.47,40.47,0,0,0,0,25.6,37.69,37.69,0,0,0,2.54,5.87,40.38,40.38,0,0,0,27.59,21,38.35,38.35,0,0,0,5.43.76,39.52,39.52,0,0,0,10.47-.57A40.57,40.57,0,0,0,526.3,569a41,41,0,0,0,10.32-11.52,41.8,41.8,0,0,0,4.51-10.83,42.48,42.48,0,0,0,1.16-7.34c.08-.85.07-1.5.09-1.93a3.69,3.69,0,0,0,0-.66v2.54a40.22,40.22,0,0,1-5.58,18.25,41.26,41.26,0,0,1-10.35,11.63,40.32,40.32,0,0,1-27.79,8.39,42.38,42.38,0,0,1-5.49-.76,45.23,45.23,0,0,1-5.46-1.55,40.73,40.73,0,0,1-22.34-19.61,38.44,38.44,0,0,1-2.54-5.9,40.84,40.84,0,0,1,0-25.81,38.55,38.55,0,0,1,2.54-5.91,40.88,40.88,0,0,1,27.8-21.15,39,39,0,0,1,5.48-.76,39.57,39.57,0,0,1,10.53.6,40.62,40.62,0,0,1,32,30.12,39.88,39.88,0,0,1,1.11,7.37C542.41,535.8,542.38,536.71,542.38,536.71Z" fill="#0071f2" data-primary="true"/>
<circle cx="501.19" cy="537.73" r="33.5" transform="translate(-229.75 459.88) rotate(-40.93)" fill="#0071f2" data-primary="true"/>
<rect x="496.7" y="527.54" width="8.86" height="14.07" rx="4.3" fill="#fafafa"/>
<path d="M501.13,544.3a6.54,6.54,0,0,1-6.52-6.54.32.32,0,0,1,.37-.25.31.31,0,0,1,.25.25,5.92,5.92,0,0,0,5.9,5.92,5.67,5.67,0,0,0,5.92-5.4,4.51,4.51,0,0,0,0-.52.32.32,0,0,1,.37-.25.31.31,0,0,1,.25.25,6.26,6.26,0,0,1-6,6.54Z" fill="#fafafa"/>
<rect x="500.83" y="543.98" width="0.62" height="3.2" fill="#fff"/>
<path d="M505,547.36h-7.74a.32.32,0,0,1-.37-.25.32.32,0,0,1,.25-.37H505a.3.3,0,0,1,.24.37A.32.32,0,0,1,505,547.36Z" fill="#fff"/>
<path d="M494.66,530.1c0,.08-.51-.07-1.07-.31s-1-.46-1-.55.53,0,1.1.25S494.7,530,494.66,530.1Z" fill="#fff"/>
<path d="M497.15,526.79a3.46,3.46,0,0,1-.9-.94c-.44-.57-.71-1.09-.64-1.14s.47.37.9.95S497.22,526.74,497.15,526.79Z" fill="#fff"/>
<path d="M501.16,525.61c-.09,0-.15-.55-.15-1.27s.09-1.27.17-1.21a2.65,2.65,0,0,1,.16,1.21A2.51,2.51,0,0,1,501.16,525.61Z" fill="#fff"/>
<path d="M506.3,524.73c.08,0-.11.51-.48,1s-.75.79-.81.74.21-.46.55-.93S506.23,524.7,506.3,524.73Z" fill="#fff"/>
<path d="M509.75,528.92a2.47,2.47,0,0,1-.91.71c-.55.32-1,.51-1.08.42s.37-.39.92-.69S509.72,528.85,509.75,528.92Z" fill="#fff"/>
<path d="M565.12,535.61l3.66-4.59a1.6,1.6,0,0,1,1.27-.62h11A1.64,1.64,0,0,1,582.7,532v9.07a1.65,1.65,0,0,1-1.65,1.65H570.22a1.64,1.64,0,0,1-1.27-.57l-3.8-4.47A1.66,1.66,0,0,1,565.12,535.61Z" fill="#2f2e41" data-secondary="true"/>
<path d="M420.24,531a6.46,6.46,0,0,1,1.62-.7l.34-1.61h2.72l.38,1.6a6.49,6.49,0,0,1,1.65.64l1.37-.9,2,1.89-.85,1.4a7,7,0,0,1,.71,1.63l1.6.34V538l-1.59.38a7.11,7.11,0,0,1-.66,1.65l1,1.33-1.88,2-1.41-.86a6,6,0,0,1-1.62.72l-.33,1.6h-2.72l-.39-1.6a6.31,6.31,0,0,1-1.64-.65l-1.39.9-1.94-1.88.85-1.41a6.33,6.33,0,0,1-.71-1.62l-1.61-.33v-2.72l1.59-.39a7,7,0,0,1,.64-1.66L417,532l1.89-1.95,1.4.85Zm1.46,3.62a2.9,2.9,0,1,0,4.11-.07,2.91,2.91,0,0,0-4.11.07Z" fill="#2f2e41" data-secondary="true"/>
<rect x="570.44" y="535.88" width="8.24" height="1.27" transform="translate(-211.09 563.42) rotate(-45)" fill="#fff"/>
<rect x="574.36" y="532.41" width="1.27" height="8.24" transform="translate(-210.97 563.86) rotate(-45.01)" fill="#fff"/>
<rect x="390.92" y="379" width="180.71" height="31.12" rx="15.12" fill="#ebebeb"/>
<rect x="378.58" y="421.87" width="238.68" height="36.65" fill="#f5f5f5"/>
<path d="M472.51,438.5h1.12v7.23h4.47v1h-5.65Z" fill="#2f2e41" data-secondary="true"/>
<path d="M479.13,438.5a.76.76,0,0,1,.75-.75h0a.72.72,0,0,1,.71.76.74.74,0,0,1-1.47,0Zm.21,1.93h1.13v6.24h-1.13Z" fill="#2f2e41" data-secondary="true"/>
<path d="M481.82,446.12l.47-.9a4.1,4.1,0,0,0,2.2.65c1.05,0,1.49-.32,1.49-.85,0-1.4-4-.19-4-2.67,0-1.12,1-1.88,2.54-1.88a4.64,4.64,0,0,1,2.27.57l-.48.89a3.21,3.21,0,0,0-1.81-.49c-1,0-1.47.36-1.47.86,0,1.47,4,.27,4,2.69,0,1.14-1,1.86-2.7,1.86A4.68,4.68,0,0,1,481.82,446.12Z" fill="#2f2e41" data-secondary="true"/>
<path d="M492,446.36a2.09,2.09,0,0,1-1.36.43,1.78,1.78,0,0,1-2-1.55,2.67,2.67,0,0,1,0-.4v-3.43H487.6v-.93h1.07v-1.37h1.13v1.37h1.79v.93H489.8v3.44a.93.93,0,0,0,.79,1h.18a1.4,1.4,0,0,0,.88-.3Z" fill="#2f2e41" data-secondary="true"/>
<path d="M498.79,444h-5.08A2.11,2.11,0,0,0,496,445.8a2.34,2.34,0,0,0,1.8-.74l.62.72a3.4,3.4,0,0,1-5.82-2.17,3.06,3.06,0,0,1,2.93-3.19h.2a3,3,0,0,1,3.09,2.93,2.62,2.62,0,0,1,0,.28C498.8,443.75,498.8,443.86,498.79,444Zm-5.08-.82h4.05a2,2,0,0,0-4,0Z" fill="#2f2e41" data-secondary="true"/>
<path d="M506.3,443.13v3.59h-1.13v-3.46c0-1.26-.61-1.82-1.69-1.82a1.86,1.86,0,0,0-2,1.73c0,.11,0,.23,0,.34v3.21h-1.13v-6.24h1.08v.94a2.73,2.73,0,0,1,2.26-1,2.42,2.42,0,0,1,2.6,2.24A2.48,2.48,0,0,1,506.3,443.13Z" fill="#2f2e41" data-secondary="true"/>
<path d="M508.19,438.5a.76.76,0,0,1,.75-.75h0a.74.74,0,0,1,.72.76.75.75,0,0,1-.77.71A.74.74,0,0,1,508.19,438.5Zm.19,1.93h1.13v6.24h-1.13Z" fill="#2f2e41" data-secondary="true"/>
<path d="M517.6,443.13v3.59h-1.13v-3.46c0-1.26-.62-1.82-1.69-1.82a1.85,1.85,0,0,0-2,1.7,2.26,2.26,0,0,0,0,.37v3.21h-1.08v-6.24h1.09v.94a2.67,2.67,0,0,1,2.25-1,2.42,2.42,0,0,1,2.55,2.29A2,2,0,0,1,517.6,443.13Z" fill="#2f2e41" data-secondary="true"/>
<path d="M525.69,440.48v5.4a2.83,2.83,0,0,1-2.4,3.2,3,3,0,0,1-.84,0,4.54,4.54,0,0,1-3-.93l.53-.87a3.83,3.83,0,0,0,2.41.81c1.46,0,2.14-.69,2.14-2.1v-.49a2.84,2.84,0,0,1-2.25,1,3,3,0,0,1,0-6h0a2.88,2.88,0,0,1,2.31,1v-1Zm-1.11,3a2.14,2.14,0,1,0-2.25,2h.11a2,2,0,0,0,2.14-1.83v-.2Z" fill="#2f2e41" data-secondary="true"/>
<path d="M527.31,446a.8.8,0,0,1,.78-.8h0a.78.78,0,0,1,.78.78v0a.78.78,0,0,1-.76.81h0a.8.8,0,0,1-.8-.8Z" fill="#2f2e41" data-secondary="true"/>
<path d="M530,446a.79.79,0,0,1,.77-.8h0a.78.78,0,0,1,.79.76v0a.79.79,0,0,1-.77.81h0a.8.8,0,0,1-.8-.8Z" fill="#2f2e41" data-secondary="true"/>
<path d="M532.66,446a.79.79,0,0,1,.77-.8h0a.77.77,0,0,1,.77.78v0a.77.77,0,0,1-.76.81h0a.8.8,0,0,1-.8-.8Z" fill="#2f2e41" data-secondary="true"/>
<path d="M418.51,390.26v8.24h-1.18v-3.67h-4.74v3.67h-1.16v-8.24h1.16v3.54h4.74v-3.54Z" fill="#2f2e41" data-secondary="true"/>
<path d="M420.6,390.36a.76.76,0,0,1,.75-.75h0a.74.74,0,1,1-.78.75Zm.21,1.93h1.13v6.24h-1.13Z" fill="#2f2e41" data-secondary="true"/>
<path d="M423.83,397.88a.75.75,0,0,1,.73-.77h.06a.75.75,0,0,1,.65.85.72.72,0,0,1-1.44-.08Zm.11-7.62h1.27L425,395.9h-.86Z" fill="#2f2e41" data-secondary="true"/>
<path d="M426.75,397.79a.78.78,0,0,1,.77-.8h0a.77.77,0,0,1,.79.76v0a.79.79,0,0,1-.76.81h0a.8.8,0,0,1-.8-.8Z" fill="#2f2e41" data-secondary="true"/>
<path d="M429.43,397.79a.79.79,0,1,1,.8.81.78.78,0,0,1-.8-.81Z" fill="#2f2e41" data-secondary="true"/>
<path d="M432.09,397.79a.79.79,0,0,1,.78-.8h0a.77.77,0,0,1,.78.75v.05a.77.77,0,0,1-.74.81h0a.8.8,0,0,1-.8-.8Z" fill="#2f2e41" data-secondary="true"/>
<circle cx="592.4" cy="394.56" r="15.22" fill="#0071f2" data-primary="true"/>
<path d="M589,393.46v-4.25a.45.45,0,0,1,.46-.44.58.58,0,0,1,.18,0l11,5.44a.43.43,0,0,1,0,.78l-11,5.29a.44.44,0,0,1-.59-.22.37.37,0,0,1,0-.18V396.3a.45.45,0,0,1,.32-.42l4-1.14-4-.85A.47.47,0,0,1,589,393.46Z" fill="#fff"/>
<path d="M605.37,237.69a1,1,0,0,0-.66-1.85H406.65a5.42,5.42,0,0,0-5.42,5.42h0v39a5.42,5.42,0,0,0,5.42,5.42H587.59A5.41,5.41,0,0,0,593,280.3V248.36a1,1,0,0,1,.38-.8Z" fill="#ebebeb"/>
<rect x="444.28" y="292.07" width="147.5" height="31.32" rx="5.07" fill="#ebebeb"/>
<line x1="440.75" y1="194.17" x2="519.34" y2="194.17" fill="none" stroke="#fff" stroke-miterlimit="10"/>
<rect x="423.74" y="253.41" width="137.36" height="1.06" fill="#2f2e41" data-secondary="true"/>
<rect x="423.74" y="267.38" width="137.36" height="1.06" fill="#2f2e41" data-secondary="true"/>
<rect x="453.92" y="307.2" width="128.22" height="1.06" fill="#2f2e41" data-secondary="true"/>
<line x1="440.75" y1="202.19" x2="498.75" y2="202.19" fill="none" stroke="#fff" stroke-miterlimit="10"/>
</g>
<path d="M298.94,263.81l-25.2-37.18,3.31-6.6a11.56,11.56,0,0,0-.37-5l-3.64-12s-3.22-4.88-13.26-3.46c0,0-2.09,4.12,8.43,7.85l-2.59,3.81-8.92-6.73-6.29-3.66s-4.32-10.42-5.76-11.32c0,0-9.82-5.3,2.09,14.45l-.07,8.62a11,11,0,0,0,5.17,9.43l8.33,8.27,28.95,72.47c3.08,6.4,6.59,12.34,13.7,12.34Z" fill="#f9b499"/>
<path d="M260.68,224l.64-.18a2,2,0,0,0,1.25-2.89l-19.24-37.7a2,2,0,0,0-2.79-.87h0a2,2,0,0,0-.86,2.69l18.6,37.89A2,2,0,0,0,260.68,224Z" fill="#2f2e41" data-secondary="true"/>
<path d="M248.82,219.25l8.91,3.65a1.76,1.76,0,0,0,2.17-.69h0a1.76,1.76,0,0,0-.67-2.5l-10.32-5.49,7.85,2.46a2.25,2.25,0,0,0,2.83-1.51h0a2.25,2.25,0,0,0-1.51-2.79l-7.94-2.4,7.26.11a1.94,1.94,0,0,0,2-1.8h0a1.94,1.94,0,0,0-1.54-2L246.74,204" fill="#f9b499"/>
<path d="M260.52,221a2.17,2.17,0,0,0-1.11-1.61l-1.46-.81L255,216.92l-.76-.42.1,0,1.4.45.71.22a3,3,0,0,0,.88.17,2.84,2.84,0,0,0,1.53-5.28,7.4,7.4,0,0,0-1.52-.54l-1.42-.42-2.1-.62h2.34c.54,0,.95,0,1.59,0a2.38,2.38,0,0,0,1.53-1,2.33,2.33,0,0,0-.54-3.22A2.5,2.5,0,0,0,258,206l-.75-.14-1.49-.28-3-.52-6-1,5.9,1.42,3,.69,1.48.34a2.93,2.93,0,0,1,1.28.44,1.55,1.55,0,0,1,.3,2.17,1.5,1.5,0,0,1-1,.58c-.36,0-1,0-1.44,0-2-.08-4-.13-6.06-.17a.55.55,0,0,0-.52.38.52.52,0,0,0,.35.66l5.65,1.75,1.41.43a7.65,7.65,0,0,1,1.25.44,1.66,1.66,0,0,1-.9,3.08,1.75,1.75,0,0,1-.56-.1l-.7-.22-1.41-.43-5.65-1.73a.55.55,0,0,0-.65.26.55.55,0,0,0,.23.74l5.92,3.08,3,1.52,1.49.76a1.4,1.4,0,0,1,.75,1,1.44,1.44,0,0,1-1.64,1.63c-.94-.28-2-.75-3.07-1.12l-6.26-2.33,6.09,2.73c1.05.44,2,.93,3.13,1.33A2.12,2.12,0,0,0,260.52,221Z" fill="#f7a48b"/>
<path d="M396.94,547.14l28.86,13.64s-4.25,17.91-26.55,16l-15.91-9.81Z" fill="#f9b499"/>
<path d="M410.49,553.6s22.73-1,26.53,11.55a4.38,4.38,0,0,1-.69,3.86L394.41,625.7A2.3,2.3,0,0,1,391,626c-2.71-2.48,7.76-29.11,6.06-50.61C397.06,575.4,414,564.39,410.49,553.6Z" fill="#0071f2" data-primary="true"/>
<path d="M312.11,600.36l6,31.35s-17,7.15-28.56-12l-1.48-18.63Z" fill="#f9b499"/>
<path d="M314.89,615.12s14.23,17.76,6.34,28.23a4.36,4.36,0,0,1-3.52,1.72l-70.51-.38a2.3,2.3,0,0,1-2.26-2.57c.4-3.65,27.87-11.18,44.23-25.25C289.17,616.87,308.26,624.31,314.89,615.12Z" fill="#0071f2" data-primary="true"/>
<path d="M325.14,129a31.61,31.61,0,0,0-14.71,1.27c-2.22.78-10.34,3.66-14.29,11.34-1.5,2.92-1.84,6.43-2.52,13.45-.43,4.39-2.12,7.53-2.11,12.88a45.21,45.21,0,0,0,2.11,12.76c2,6.47.7,10.14,1.68,11.35,3.95,4.87,15.95,1,16.13,7.41.11,3.92-6.51,20.87-6.38,25.47.32,10.71,18.21-.5,28.92-16.48.48-.73,7.8-5,7-12-.41-3.7-3.56-21.11-3.26-23.35,1.09-8.12,5.18-9.11,8.41-18.92a15.28,15.28,0,0,0-2.52-14.71C338.42,133.08,329.76,129.53,325.14,129Z" fill="#f9b499"/>
<path d="M331.56,159.44a2.91,2.91,0,0,1,1.95.09,5,5,0,0,1,1.65,1.07,5.55,5.55,0,0,1,1.1,1.58,4.72,4.72,0,0,1,.46,1.86,17.87,17.87,0,0,1-1.31-1.29c-.41-.41-.77-.84-1.17-1.21a14.2,14.2,0,0,0-1.22-1.11A9.79,9.79,0,0,0,331.56,159.44Z" fill="#f7a48b"/>
<path d="M332.9,168a4.93,4.93,0,0,1-.95-4,5.59,5.59,0,0,1,.73-2,4.37,4.37,0,0,1,1.46-1.47,34.05,34.05,0,0,0-.9,3.66A32,32,0,0,0,332.9,168Z" fill="#f7a48b"/>
<path d="M328,171a16.05,16.05,0,0,1,1.07-6.82c1.17-3,2.62-7.08,5.55-7.36,2.16-.2,3-.77,3.81,1.32,1.28,3.45-.95,7.25-2.51,9.9-2.22,3.8-4.11,4.63-4.15,7.25,0,2,5.69,6.06,6.77,5.28,2.21-1.59,1-6.37,7-17.73,3.8-7.18,5.55-8.53,6-13,.16-1.59.81-8.18-3.16-12-1.84-1.77-2.88-1.23-10.88-4.62a66.57,66.57,0,0,1-6.5-3c-6.37-3.48-6.22-5.27-9.95-6.33-3.37-1-3.57.48-10,.1-6.19-.37-6.74-1.75-9.61-.93-5,1.42-7.36,6.73-8,8.16a17,17,0,0,0-1.92,8c.16,2.54,1.67,6.41,3,7.79.81.82,4.09-3.93,5.87-5.71s3.74-1,6.45-.87,2.5,1.82,6.41,3.26c1.39.51,7-2,8.77,1.1,1.92,3.29,3.41,3.69,2.51,6.76-.56,1.91-.21,4.26.49,9,.5,3.37-2.23,15.16-2.23,15.16C321.81,177.68,328.3,176.15,328,171Z" fill="#2f2e41" data-secondary="true"/>
<path d="M290.84,360.84,277.6,483.75l3.07,124.16a3.25,3.25,0,0,0,3.25,3.16H312.5a3.23,3.23,0,0,0,3.22-2.91l7.89-75.88,57,41.37a3.24,3.24,0,0,0,4.72-1l14.56-25.48a3.24,3.24,0,0,0-.64-4l-59.84-54.35,13.24-68.7L364.77,397a50.65,50.65,0,0,0,5.69-27.28L369,349.5Z" fill="#2f2e41" data-secondary="true"/>
<g opacity="0.2">
<path d="M295.88,369.67l-1,22.38-1.09,22.37-2.19,44.75-1.22,22.36-.61,11.19a26.14,26.14,0,0,0,7.05,20.36c2.49,2.77,5.09,5.45,7.82,8a66.49,66.49,0,0,0,8.7,7,24.1,24.1,0,0,0,10.24,4.22,24.2,24.2,0,0,1-10.34-4.07,65.27,65.27,0,0,1-8.84-6.88c-2.77-2.52-5.39-5.2-7.9-8a26.87,26.87,0,0,1-5.87-9.55,27.35,27.35,0,0,1-1.41-11.13l.54-11.19,1.1-22.37,2.43-44.74L294.54,392Z"/>
</g>
<g opacity="0.2">
<path d="M328.66,490.05a17.61,17.61,0,0,0,2.79.79,9.85,9.85,0,0,0,2.81.17,7,7,0,0,0,2.69-.67,10.34,10.34,0,0,0,2.42-1.55,6.62,6.62,0,0,1-2.15,2.06,6.78,6.78,0,0,1-2.91.9A8.61,8.61,0,0,1,328.66,490.05Z"/>
</g>
<path d="M308.46,211.25s-11.21,33.33,32.32-16.41L360,210.53a23.36,23.36,0,0,1,7.87,12.91l14.35,65.23H364.74L369,349.5l-82,12S287,277.9,308.46,211.25Z" fill="#0071f2" data-primary="true"/>
<g opacity="0.2">
<path d="M297.61,344c1.48-.86,3-1.65,4.48-2.47l4.36-2.62a73,73,0,0,0,8.12-6,45.48,45.48,0,0,0,6.91-7.3,31.87,31.87,0,0,0,2.66-4.28,19.61,19.61,0,0,0,1.84-4.72,21.86,21.86,0,0,1-3.67,9.58,36.63,36.63,0,0,1-6.88,7.71,51.72,51.72,0,0,1-8.46,5.9l-4.59,2.33C300.78,342.71,299.21,343.39,297.61,344Z"/>
</g>
<path d="M344,289.75l5.59,31.07L328.1,371.87l-9.57,9a48,48,0,0,0,11.67,24.34s6.41-11.81,5.94-24.1l39-44.91a29,29,0,0,0,6.73-23.67L378,288.67S355.45,280.43,344,289.75Z" fill="#f9b499"/>
<path d="M346.78,206.89S323.42,210.2,329,242.82s8.49,47.27,8.49,47.27l44.79-1.42" fill="#0071f2" data-primary="true"/>
<path d="M346.78,206.89a22,22,0,0,0-10.12,5.28,23.29,23.29,0,0,0-6.2,9.47,32.63,32.63,0,0,0-1.42,5.54c-.14.94-.17,1.9-.26,2.85a18.2,18.2,0,0,0-.12,2.86,68.76,68.76,0,0,0,1.15,11.42L334,267.13,338,290l-.58-.46c7.47-.24,14.94-.34,22.4-.52s14.94-.21,22.41-.33c-7.46.36-14.92.79-22.38,1.09s-14.93.67-22.39.9l-.5,0-.08-.48-4.18-22.83-4-22.86a63.78,63.78,0,0,1-1-11.64,19,19,0,0,1,.19-2.92c.11-1,.16-2,.33-2.92a32.2,32.2,0,0,1,1.58-5.65A22.6,22.6,0,0,1,346.78,206.89Z" fill="#0071f2" data-primary="true"/>
<g opacity="0.2">
<path d="M346.78,206.89a22,22,0,0,0-10.12,5.28,23.29,23.29,0,0,0-6.2,9.47,32.63,32.63,0,0,0-1.42,5.54c-.14.94-.17,1.9-.26,2.85a18.2,18.2,0,0,0-.12,2.86,68.76,68.76,0,0,0,1.15,11.42L334,267.13,338,290l-.58-.46c7.47-.24,14.94-.34,22.4-.52s14.94-.21,22.41-.33c-7.46.36-14.92.79-22.38,1.09s-14.93.67-22.39.9l-.5,0-.08-.48-4.18-22.83-4-22.86a63.78,63.78,0,0,1-1-11.64,19,19,0,0,1,.19-2.92c.11-1,.16-2,.33-2.92a32.2,32.2,0,0,1,1.58-5.65A22.6,22.6,0,0,1,346.78,206.89Z"/>
</g>
<path d="M316.63,370.7a59.15,59.15,0,0,0,1.05,6.37c.41,2.1.95,4.18,1.56,6.23a62.44,62.44,0,0,0,4.81,11.83,46.21,46.21,0,0,0,7.32,10.39l2.22,2.3,2.47,2,1.23,1,1.34.89c.9.59,1.79,1.19,2.68,1.8a37.44,37.44,0,0,1-10.66-7.36,43.39,43.39,0,0,1-7.76-10.48,56.78,56.78,0,0,1-4.62-12.18A52.72,52.72,0,0,1,316.63,370.7Z" fill="#2f2e41" data-secondary="true"/>
<g opacity="0.2">
<path d="M316.63,370.7a59.15,59.15,0,0,0,1.05,6.37c.41,2.1.95,4.18,1.56,6.23a62.44,62.44,0,0,0,4.81,11.83,46.21,46.21,0,0,0,7.32,10.39l2.22,2.3,2.47,2,1.23,1,1.34.89c.9.59,1.79,1.19,2.68,1.8a37.44,37.44,0,0,1-10.66-7.36,43.39,43.39,0,0,1-7.76-10.48,56.78,56.78,0,0,1-4.62-12.18A52.72,52.72,0,0,1,316.63,370.7Z"/>
</g>
<path d="M319.26,191.22c-5.38,3.78-15.75,3.62-15.75,3.62l0,.24c4,.49,7.85.85,7.95,4.42a25.63,25.63,0,0,1-1.21,5.87C317.27,201.32,319.26,191.22,319.26,191.22Z" fill="#f7a48b"/>
<path d="M256.9,171.53a3.92,3.92,0,0,0,3.92-3.92v-6.53a3.92,3.92,0,1,0-7.83,0v6.53a3.92,3.92,0,0,0,3.91,3.92Zm0,0" fill="#0071f2" data-primary="true"/>
<path d="M263.43,166.3v1a6.72,6.72,0,0,1-5.87,6.79,6.53,6.53,0,0,1-7.18-6.49V166.3a1.3,1.3,0,0,0-1.3-1.3h0a1.3,1.3,0,0,0-1.29,1.3v1.31a9.14,9.14,0,0,0,7.82,9v4H253a1.31,1.31,0,0,0,0,2.62h7.82a1.31,1.31,0,1,0,0-2.62H258.2v-4a9.14,9.14,0,0,0,7.83-9V166.3a1.3,1.3,0,0,0-1.29-1.3h0A1.3,1.3,0,0,0,263.43,166.3Zm0-1.3" fill="#2f2e41" data-secondary="true"/>
<g id="e02333f7-4212-497e-834e-a8a692b1127c" data-name="freepik--Plant--inject-17">
<path d="M652.7,521.62a42.07,42.07,0,0,0-18-6.19c-2.89-.3-6.16-.21-8.51,1.56a1.78,1.78,0,0,0-.88,1.56,1.9,1.9,0,0,0,.84,1.05,25.7,25.7,0,0,0,26.51,2" fill="#0071f2" data-primary="true"/>
<path d="M652.24,521.06a86.69,86.69,0,0,1-11.61-10.21,29.4,29.4,0,0,1-7.28-13.45,5.45,5.45,0,0,1,.58-4.5c9.25,7.21,16.52,16.57,18.31,28.16" fill="#0071f2" data-primary="true"/>
<path d="M652.6,521.5a41.7,41.7,0,0,1,.22-15.23,20.63,20.63,0,0,1,8.11-12.58c1.6,3.74.91,8.05-.21,12a58.37,58.37,0,0,1-8.05,16.94" fill="#0071f2" data-primary="true"/>
<path d="M661.67,537.75a26.46,26.46,0,0,0-14.42,7.3A27.31,27.31,0,0,0,639,559.19c5.4-.33,10-4.14,13.31-8.4s5.62-9,9.27-13" fill="#0071f2" data-primary="true"/>
<path d="M663.64,540.36a35.52,35.52,0,0,1,4.1-33.6c3.14,11.14,2,23.74-4.1,33.6" fill="#0071f2" data-primary="true"/>
<path d="M675.59,554.62a25.69,25.69,0,0,0-24.5,14.14,1.89,1.89,0,0,0-.16,1.92,1.81,1.81,0,0,0,1.63.48c4.84-.31,9.12-3.22,12.67-6.55s6.63-7.13,10.54-10" fill="#0071f2" data-primary="true"/>
<path d="M675.23,553.84a45.73,45.73,0,0,1-.46-25.56c.91-3.3,2.42-6.76,5.47-8.3a.82.82,0,0,1,1.17.1.77.77,0,0,1,.18.36,15.4,15.4,0,0,1,1.29,7.34,46.52,46.52,0,0,1-1.14,7.42c-1,4.54-1.45,9.42-4,13.32a26,26,0,0,0-1.57,2.89c-.48,1-.48,1.35-.91,2.13" fill="#0071f2" data-primary="true"/>
<path d="M707,558.56a32.94,32.94,0,0,1,5.77-27.09c.42-.55,1-1.13,1.64-1.06,1,.09,1.31,1.45,1.27,2.51A49,49,0,0,1,707,558.56" fill="#0071f2" data-primary="true"/>
<path d="M709.81,560.55A39.49,39.49,0,0,0,742.16,554a26.18,26.18,0,0,0-17.55-2.18c-5.85,1.33-11.19,4-14.83,8.73" fill="#0071f2" data-primary="true"/>
<path d="M712.21,554.56a37.43,37.43,0,0,1,29.37-17c-1.34,4.72-5.23,8.39-9.6,10.61a53.38,53.38,0,0,1-14.1,4.13c-1.87.36-4.44.76-5.67,2.23" fill="#0071f2" data-primary="true"/>
<path d="M707.56,525.69a85.77,85.77,0,0,0,3.75-17.19,28.69,28.69,0,0,0-3.42-17c-5.68,11-6.26,23.83-.51,34.79" fill="#0071f2" data-primary="true"/>
<path d="M726.67,516c6.65-12.09,20.19-21.73,33.91-23.07-5.29,13.16-19.7,23.34-33.91,23.07" fill="#0071f2" data-primary="true"/>
<path d="M722.49,518.39c9.92,1.51,18.36,7.83,27.61,11.68a12.36,12.36,0,0,0,6.24,1.18,4.87,4.87,0,0,0,3.06-8.65,13.41,13.41,0,0,0-4.53-2.75c-10.09-4.2-20.9-4.33-31.53-1.76" fill="#0071f2" data-primary="true"/>
<path d="M716.77,525.34c2.23.63,3,1.8,4.79,3.32a51.74,51.74,0,0,0,20.93,10.75c.79.2,1.85.27,2.23-.45a1.75,1.75,0,0,0-.53-2,28.87,28.87,0,0,0-12.64-8.58c-4.83-1.8-9-4-14.78-3.5" fill="#0071f2" data-primary="true"/>
<path d="M710.3,483.37a39.63,39.63,0,0,0,30.37,10.34,2.2,2.2,0,0,0,1.45-.51c.76-.82-.16-2.1-1.06-2.88-8.92-6.95-19.73-9.85-30.71-7" fill="#0071f2" data-primary="true"/>
<path d="M718,480.56a42.38,42.38,0,0,1,37.9-6.26,30,30,0,0,1-18.07,7.93A56.65,56.65,0,0,1,718,480.56" fill="#0071f2" data-primary="true"/>
<path d="M714.92,461.28c-.88-8.92-.31-16-.93-24.91,0-.71-.2-1.57-.87-1.83-.93-.36-1.71.79-2,1.74a28.56,28.56,0,0,0,3.81,24.8" fill="#0071f2" data-primary="true"/>
<path d="M714.28,462.26A52.62,52.62,0,0,0,729,447.92c2.88-4,5.38-8.78,4.71-13.67a14.14,14.14,0,0,0-10.65,5.28,29.74,29.74,0,0,0-5.42,10.93c-1.18,3.92-2,8-3.4,11.8" fill="#0071f2" data-primary="true"/>
<path d="M728.78,458.18a119,119,0,0,0,36.34-21.42c-4.32-1.74-9.31-.69-13.65,1.05a43.07,43.07,0,0,0-22.88,20.37" fill="#0071f2" data-primary="true"/>
<path d="M718.36,467.14a74.12,74.12,0,0,0,20.18.1c6.55-1.1,12.73-3.69,18.84-6.26a2.31,2.31,0,0,0,1.29-1,1.44,1.44,0,0,0-.47-1.6,4,4,0,0,0-1.61-.76,34.87,34.87,0,0,0-20.34,1.22,93.89,93.89,0,0,0-17.88,8.28" fill="#0071f2" data-primary="true"/>
<path d="M680.05,483.67a35.74,35.74,0,0,1-.32-29.54c2.78,4.24,3.12,9.65,2.61,14.69s-2.05,10.24-2.15,15.32" fill="#0071f2" data-primary="true"/>
<path d="M661.77,474.46a41.14,41.14,0,0,0-30.61,13,28.86,28.86,0,0,0,16.77-3.1,87.45,87.45,0,0,0,14.42-9.62" fill="#0071f2" data-primary="true"/>
<path d="M649.48,470.34c-5.59-.45-11-1.14-16.34.5a19.59,19.59,0,0,0-12.46,10.57A29.47,29.47,0,0,0,636,478.53a86,86,0,0,0,13.48-8.18" fill="#0071f2" data-primary="true"/>
<path d="M667.68,470.53c-5-3.29-10.19-6.65-16-8s-12.64-.36-16.72,4.06c4.74,2.78,10.49,3.11,16,3.09s12.22,0,17.41,1.78" fill="#0071f2" data-primary="true"/>
<path d="M667.71,470.8c-8.65-8.45-11.85-23.6-8.39-35.15a53.65,53.65,0,0,1,8.39,35.15" fill="#0071f2" data-primary="true"/>
<path d="M691.35,446.88c1.62-3.78,2.76-7.73,4.21-11.53a33.35,33.35,0,0,1,6-10.66,15.93,15.93,0,0,1,10.66-5.52A42.82,42.82,0,0,1,691.55,447" fill="#0071f2" data-primary="true"/>
<path d="M687.13,451.87c-2.68-3.71-5.77-8.65-9.42-11.46S669.34,436,664.9,437a29.83,29.83,0,0,0,22.23,14.84" fill="#0071f2" data-primary="true"/>
<path d="M687.92,447.18a64.5,64.5,0,0,1-4.24-13.72,21.49,21.49,0,0,1,2.15-14c4.73,8.92,6.24,18.5,2.34,27.79" fill="#0071f2" data-primary="true"/>
<path d="M691.45,419.49c2.67-8.84,10.77-15.36,19.51-18.34a7.39,7.39,0,0,1,3.42-.52,3,3,0,0,1,2.52,2.11c.32,1.44-.92,2.88-2.09,3.85a66.47,66.47,0,0,1-23.36,13" fill="#0071f2" data-primary="true"/>
<path d="M691.45,412.25c.35-5.69.71-11.53,2.56-16.88s5.43-10.47,10.62-12.83c.89,5.76-1.64,11.53-4.71,16.43s-6.77,9.63-8.65,15.17" fill="#0071f2" data-primary="true"/>
<path d="M691.35,416.19c-2.22-6.45-2.43-14.64-6.3-20.26-2.69-3.92-7-6.59-9.34-10.75a16.39,16.39,0,0,0,.55,12.21,35,35,0,0,0,7.21,10.22c2.88,3.06,5.3,5.35,7.95,8.58" fill="#0071f2" data-primary="true"/>
<path d="M691.45,606c-.17,0-.33-43-.33-96s.12-96,.29-96,.32,43,.33,96S691.57,606,691.45,606Z" fill="#2f2e41" data-secondary="true"/>
<path d="M728.94,477.19a9.67,9.67,0,0,1-1.63.6l-4.44,1.44c-3.75,1.29-8.91,3.13-14.51,5.42s-10.75,4.33-13.72,6.9a9.85,9.85,0,0,0-2.75,3.64c-.44,1-.51,1.63-.57,1.62s0-.16,0-.45a6.55,6.55,0,0,1,.32-1.25,9.67,9.67,0,0,1,2.7-3.77,23.63,23.63,0,0,1,5.95-3.7c2.38-1.11,5-2.28,7.83-3.43,5.61-2.3,10.8-4.08,14.59-5.27,1.9-.59,3.45-1,4.53-1.31A9,9,0,0,1,728.94,477.19Z" fill="#2f2e41" data-secondary="true"/>
<path d="M741.28,446.94a2.67,2.67,0,0,1-.46.49l-1.37,1.3-5.16,4.67-17.15,15.27c-6.69,5.95-12.47,11.64-16.47,15.93-2,2.13-3.58,3.9-4.66,5.14l-1.26,1.45a2.5,2.5,0,0,1-.46.46,3,3,0,0,1,.38-.55,16.88,16.88,0,0,1,1.15-1.44c1-1.29,2.55-3.1,4.53-5.29a218.53,218.53,0,0,1,16.39-16.11c6.7-5.94,12.82-11.27,17.3-15.12l5.29-4.53,1.44-1.21A2.47,2.47,0,0,1,741.28,446.94Z" fill="#2f2e41" data-secondary="true"/>
<path d="M709.92,474.72c-.17-.09,1.23-3.32,2.63-7.4s2.06-7.52,2.24-7.49a25.8,25.8,0,0,1-1.65,7.7q-.92,2.64-2.09,5.17A7.43,7.43,0,0,1,709.92,474.72Z" fill="#2f2e41" data-secondary="true"/>
<path d="M691.45,500.74a10.5,10.5,0,0,1-1-1.19l-2.64-3.39c-2.22-2.88-5.29-6.83-8.72-11.16s-6.6-8.22-8.9-11l-2.69-3.33a7.88,7.88,0,0,1-.94-1.29,8,8,0,0,1,1.12,1.13l2.89,3.21c2.38,2.74,5.59,6.59,9,10.93s6.46,8.35,8.65,11.28c1.07,1.44,1.92,2.66,2.48,3.51A7,7,0,0,1,691.45,500.74Z" fill="#2f2e41" data-secondary="true"/>
<path d="M683.19,490.16a15.06,15.06,0,0,1-3.44-6.46,18.64,18.64,0,0,1-.8-6.51h.28c-.12.49-.2.75-.26.75s0-.29,0-.8h.27a29.74,29.74,0,0,0,1.1,6.35A49,49,0,0,0,683.19,490.16Z" fill="#2f2e41" data-secondary="true"/>
<path d="M672.55,476.78a10.47,10.47,0,0,0-2.41-1.44,15.88,15.88,0,0,0-6.68-.53,42.46,42.46,0,0,0-6.74,1.09,20,20,0,0,1-2.77.67,9.53,9.53,0,0,1,2.66-1.1,30.81,30.81,0,0,1,6.8-1.28,14.51,14.51,0,0,1,6.91.75A4.17,4.17,0,0,1,672.55,476.78Z" fill="#2f2e41" data-secondary="true"/>
<path d="M670,473.54c0,.1-1.44-.56-3.69-1.34a37.23,37.23,0,0,0-18.61-1.44c-2.38.41-3.82.86-3.85.76a3.42,3.42,0,0,1,1-.42,26.64,26.64,0,0,1,2.78-.78,32.82,32.82,0,0,1,9.53-.66,33.16,33.16,0,0,1,9.32,2.09,26.07,26.07,0,0,1,2.64,1.2A4.11,4.11,0,0,1,670,473.54Z" fill="#2f2e41" data-secondary="true"/>
<path d="M691.35,459.83a74.76,74.76,0,0,1-2.69-9.34,72,72,0,0,1-2.09-9.51,76.14,76.14,0,0,1,2.69,9.35A78.88,78.88,0,0,1,691.35,459.83Z" fill="#2f2e41" data-secondary="true"/>
<path d="M691.53,459.83a47.73,47.73,0,0,0-3-5.6,24.15,24.15,0,0,0-4.4-4.52,4,4,0,0,1,1.7.86,14,14,0,0,1,3.21,3.3A12.65,12.65,0,0,1,691.53,459.83Z" fill="#2f2e41" data-secondary="true"/>
<path d="M691.45,583.05s-.2-1-.67-2.88a41.72,41.72,0,0,0-2.89-7.46,101.93,101.93,0,0,0-15.24-21.46c-3.4-3.9-6.7-7.56-9.5-11.08a77.1,77.1,0,0,1-6.8-9.8,47.61,47.61,0,0,1-3.43-7.21c-.32-.89-.55-1.58-.68-2.07a3.78,3.78,0,0,1-.17-.74s.37,1,1.08,2.73a52,52,0,0,0,3.59,7.2,78.88,78.88,0,0,0,6.86,9.66c2.81,3.48,6.11,7.13,9.53,11a98.27,98.27,0,0,1,15.17,21.7,37.62,37.62,0,0,1,2.71,7.58,19.71,19.71,0,0,1,.37,2.15A3.7,3.7,0,0,1,691.45,583.05Z" fill="#2f2e41" data-secondary="true"/>
<path d="M725.33,544.69a14.57,14.57,0,0,1-1.77,1,38.38,38.38,0,0,0-4.61,3.06,52.85,52.85,0,0,0-6.06,5.52c-2.13,2.25-4.32,4.86-6.56,7.66-4.47,5.6-8.65,10.58-11.16,14.54-1.27,2-2.19,3.62-2.79,4.79-.3.61-.63,1.21-1,1.79a1.35,1.35,0,0,1,.15-.51c.16-.32.32-.81.61-1.44a46.54,46.54,0,0,1,2.64-4.92,163.68,163.68,0,0,1,11.07-14.63c2.25-2.8,4.47-5.41,6.63-7.65a46.92,46.92,0,0,1,6.22-5.48,31.52,31.52,0,0,1,4.75-2.89,12.37,12.37,0,0,1,1.45-.62A2.27,2.27,0,0,1,725.33,544.69Z" fill="#2f2e41" data-secondary="true"/>
<path d="M726.05,557.14a27.93,27.93,0,0,1-3.76.55,50.1,50.1,0,0,0-8.92,1.76,27.12,27.12,0,0,0-8,4.18c-1.85,1.44-2.71,2.61-2.8,2.54a3.12,3.12,0,0,1,.57-.87,13.72,13.72,0,0,1,2-2,24.07,24.07,0,0,1,8.07-4.44,39.85,39.85,0,0,1,9.07-1.6A20.1,20.1,0,0,1,726.05,557.14Z" fill="#2f2e41" data-secondary="true"/>
<path d="M703.64,564.87c-.19-.11,1.44-2.69,2.88-6.18s1.44-6.59,1.74-6.56a6.16,6.16,0,0,1-.07,2,21.49,21.49,0,0,1-1.09,4.76,22.52,22.52,0,0,1-2.18,4.33A6,6,0,0,1,703.64,564.87Z" fill="#2f2e41" data-secondary="true"/>
<path d="M736.33,511.31a2.66,2.66,0,0,1-.6.32l-1.76.81c-.78.33-1.72.75-2.78,1.31s-2.3,1.11-3.59,1.89l-2.05,1.15c-.71.42-1.44.91-2.16,1.44-1.44.92-3,2-4.65,3.2a80.2,80.2,0,0,0-17.89,18.51c-1.09,1.66-2.17,3.22-3,4.76-.45.77-.91,1.44-1.28,2.21s-.75,1.44-1.1,2.09c-.73,1.31-1.25,2.56-1.77,3.65a28.48,28.48,0,0,0-1.21,2.88l-.75,1.79a5,5,0,0,1-.29.62,2.54,2.54,0,0,1,.17-.67l.64-1.83c.27-.81.63-1.77,1.12-2.88s1-2.38,1.69-3.72c.34-.68.71-1.44,1.07-2.12s.83-1.44,1.26-2.25c.85-1.56,1.92-3.13,3-4.81a77.11,77.11,0,0,1,18-18.65c1.64-1.15,3.17-2.26,4.71-3.17.75-.46,1.44-.93,2.19-1.34l2.1-1.14c1.31-.76,2.56-1.29,3.64-1.81a29.14,29.14,0,0,1,2.89-1.23l1.81-.69A2.25,2.25,0,0,1,736.33,511.31Z" fill="#2f2e41" data-secondary="true"/>
<path d="M709.46,529.3a4.44,4.44,0,0,1,1.44-2.19,9.34,9.34,0,0,1,6-2.29,16.35,16.35,0,0,1,6.25,1.23,9.35,9.35,0,0,1,2.38,1.15,14.85,14.85,0,0,1-2.52-.74,19.46,19.46,0,0,0-6.1-1,9.72,9.72,0,0,0-5.68,2A21.65,21.65,0,0,0,709.46,529.3Z" fill="#2f2e41" data-secondary="true"/>
<path d="M705.45,533.46a23.12,23.12,0,0,0,1.69-5.51,21.91,21.91,0,0,0-.38-5.77,3.65,3.65,0,0,1,.7,1.6,11.27,11.27,0,0,1,.3,4.21,11.53,11.53,0,0,1-1.26,4C706,533,705.51,533.5,705.45,533.46Z" fill="#2f2e41" data-secondary="true"/>
<path d="M661.7,589.21c.92,16.43,5.88,33.16,13.49,50h33.16c7.21-16.72,11.87-33.4,12.69-50Z" fill="#2f2e41" data-secondary="true"/>
<path d="M715.63,615.79c0,.18-10.9.32-24.35.32s-24.35-.14-24.35-.32,10.9-.3,24.35-.3S715.63,615.62,715.63,615.79Z" fill="#fafafa"/>
<path d="M714.9,621.75c0,.17-10.23.31-22.84.31s-22.82-.14-22.82-.31,10.22-.32,22.82-.32S714.9,621.57,714.9,621.75Z" fill="#fafafa"/>
<path d="M675.72,600a90.3,90.3,0,0,1,0,15.25A97.05,97.05,0,0,1,675.72,600Z" fill="#fafafa"/>
<path d="M693.47,600a102.41,102.41,0,0,1,0,15.86A100,100,0,0,1,693.47,600Z" fill="#fafafa"/>
<path d="M710.2,599.86a103.27,103.27,0,0,1,0,16.12A105.79,105.79,0,0,1,710.2,599.86Z" fill="#fafafa"/>
<path d="M719.94,600c0,.17-12.79.32-28.56.32s-28.56-.15-28.56-.32,12.79-.3,28.56-.3S719.94,599.82,719.94,600Z" fill="#fafafa"/>
</g>
</svg>